<svg xmlns="http://www.w3.org/2000/svg" width="31" height="32" viewBox="0 0 31 32">
  <g id="Group_10877" data-name="Group 10877" transform="translate(-0.345)">
    <path id="Path_10080" data-name="Path 10080" d="M182.116,391.362v3.167h7.768a6.633,6.633,0,0,1-1.77,3.991,8.056,8.056,0,0,1-6,2.317,8.42,8.42,0,1,1,5.853-14.573l2.285-2.227a11.369,11.369,0,0,0-8.138-3.218c-6.553,0-12.062,5.2-12.062,11.586s5.509,11.586,12.062,11.586a11.043,11.043,0,0,0,8.3-3.244,10.322,10.322,0,0,0,2.814-7.4,9.929,9.929,0,0,0-.172-1.983Z" transform="translate(-165.787 -376.4)" fill="#08bdba"/>
    <rect id="Rectangle_617" data-name="Rectangle 617" width="31" height="32" transform="translate(0.345)" fill="none"/>
  </g>
</svg>
