<svg xmlns="http://www.w3.org/2000/svg" xmlns:xlink="http://www.w3.org/1999/xlink" width="1920" height="1016" viewBox="0 0 1920 1016">
  <defs>
    <clipPath id="clip-path">
      <path id="Path_10297" data-name="Path 10297" d="M0,0H1920V1016H0Z" transform="translate(0 64)" fill="#fff" stroke="#707070" stroke-width="1"/>
    </clipPath>
    <clipPath id="clip-path-2">
      <path id="Path_10081" data-name="Path 10081" d="M2775.03,1509.275l751.5-436.724,756.411,436.72-751.5,436.72Z" transform="translate(-2775.03 -1072.551)" fill="none"/>
    </clipPath>
    <clipPath id="clip-path-3">
      <path id="Path_10222" data-name="Path 10222" d="M3482.8,2.248,3633.1-85.1,3784.379,2.247l-150.3,87.344Z" transform="translate(-3482.798 85.097)" fill="none"/>
    </clipPath>
  </defs>
  <g id="Mask_Group_1" data-name="Mask Group 1" transform="translate(0 -64)" clip-path="url(#clip-path)">
    <g id="Group_10902" data-name="Group 10902" transform="translate(-2120.429 -291.341)">
      <g id="Group_10837" data-name="Group 10837" transform="translate(2760.429 894.606)">
        <g id="Group_10832" data-name="Group 10832">
          <g id="Group_10831" data-name="Group 10831">
            <g id="Group_10828" data-name="Group 10828">
              <path id="Path_10082" data-name="Path 10082" d="M4293.719,1508.812l-764.146,444.071-769.144-444.067,764.146-444.075Z" transform="translate(-2760.429 -1064.741)" fill="#18bdba"/>
            </g>
            <g id="Group_10829" data-name="Group 10829" transform="translate(768.65 443.287)">
              <path id="Path_10083" data-name="Path 10083" d="M4426.99,1584.886l-.495,173.677L3662.35,2202.634l.49-173.677Z" transform="translate(-3662.35 -1584.886)" fill="#d9fbfb"/>
            </g>
            <g id="Group_10830" data-name="Group 10830" transform="translate(1.633 443.299)">
              <path id="Path_10084" data-name="Path 10084" d="M3531.986,2028.959l-.49,173.677-769.151-444.058.494-173.677Z" transform="translate(-2762.345 -1584.901)" fill="#343a3f"/>
            </g>
          </g>
        </g>
        <g id="Group_10836" data-name="Group 10836" transform="translate(12.443 6.656)">
          <g id="Group_10835" data-name="Group 10835">
            <g id="Group_10879" data-name="Group 10879">
              <g id="Group_10878" data-name="Group 10878" clip-path="url(#clip-path-2)">
                <g id="Group_10834" data-name="Group 10834" transform="translate(110.424 63.965)">
                  <g id="Group_10833" data-name="Group 10833">
                    <path id="Path_10085" data-name="Path 10085" d="M3548.1,1584.989H2904.6c.23,40.932,28.55,80.2,78.683,109.155,104.42,60.317,273.2,60.312,376.966,0l28.767-16.717c-86.592,48.577-225.05,48.087-311.032-1.581-41.734-24.1-65.32-56.785-65.511-90.871H3548.1" transform="translate(-2904.599 -1212.233)" fill="#d9fbfb"/>
                    <path id="Path_10086" data-name="Path 10086" d="M3441.875,1657.628c-68.95,39.91-180.814,39.833-250.046-.136l-.251-.145c-33.164-19.214-51.863-45.224-51.986-72.351H3031.175c.192,34.089,23.776,66.773,65.511,90.87,85.982,49.668,224.441,50.171,311.032,1.581.925-.52,1.837-1.04,2.749-1.568l3.323-1.93,5.966-3.473,1.244-.724,2.557-1.492,1.278-.754,4.057-2.356,4.189-2.433,4.325-2.514,4.432-2.557" transform="translate(-2923.302 -1212.236)" fill="#18bdba"/>
                    <path id="Path_10087" data-name="Path 10087" d="M3585.659,1584.991H3158.39c.124,27.127,18.822,53.137,51.985,72.351l.251.145c69.231,39.97,181.1,40.055,250.046.136l1.974-1.146,1.811-1.052.946-.55h.026l.92-.533,1.973-1.151,1.279-.737.732-.426,1.027-.6,1.051-.614,1.083-.631,2.16-1.257,1.083-.626,1.108-.643,1.568-.912,1.867-1.082,3.511-2.041,4.432-2.578,1.6-.929,36.165-21.016,1.781-1.035,1.76-1.023,1.73-1.006,10.082-5.855,1.594-.929L3585.667,1585" transform="translate(-2942.1 -1212.235)" fill="#343a3f"/>
                    <path id="Path_10088" data-name="Path 10088" d="M3548.158,1558.217H3012.472c-.192-34.089,23.01-66.791,64.489-90.9,86.361-50.188,226.857-50.171,313.781,0l-31.694-18.3c-104.446-60.3-273.228-60.3-376.991,0-49.813,28.951-77.66,68.234-77.456,109.183h643.558" transform="translate(-2904.599 -1185.461)" fill="#343a3f"/>
                    <path id="Path_10089" data-name="Path 10089" d="M3566.861,1562.709H3139.567c-.154-27.11,18.275-53.137,51.224-72.346,68.762-40.119,180.81-40.213,250.268-.268l-31.614-18.255c-86.928-50.184-227.419-50.2-313.781,0-41.486,24.11-64.68,56.814-64.489,90.9h535.686" transform="translate(-2923.302 -1189.953)" fill="#d9fbfb"/>
                    <path id="Path_10090" data-name="Path 10090" d="M3585.654,1567.216l-125.8-72.628c-69.458-39.944-181.527-39.851-250.268.268-32.948,19.209-51.377,45.237-51.224,72.346h427.294" transform="translate(-2942.095 -1194.461)" fill="#18bdba"/>
                    <path id="Path_10091" data-name="Path 10091" d="M3849.149,1709.933l-31.7-18.3c86.928,50.184,87.354,131.564,1,181.752-41.461,24.1-97.845,37.634-156.692,37.634l.354,62.486c70.693,0,138.4-16.256,188.242-45.224,103.739-60.287,103.189-158.052-1.2-218.351" transform="translate(-3016.479 -1227.994)" fill="#d9fbfb"/>
                    <path id="Path_10092" data-name="Path 10092" d="M3817.39,1688.469l-3.345-1.935-6.012-3.469-1.279-.741-2.582-1.492-1.308-.754-4.082-2.356-4.214-2.433-4.326-2.5-4.49-2.591c69.214,40.115,69.363,105.021.328,144.978-33.058,19.15-77.9,29.892-124.708,29.892h-.021l.349,62.772c58.843,0,115.227-13.538,156.688-37.635,86.361-50.188,85.927-131.568-1-181.752" transform="translate(-3016.419 -1224.826)" fill="#18bdba"/>
                    <path id="Path_10093" data-name="Path 10093" d="M3785.513,1657.6l-1.986-1.146-1.823-1.053-.95-.55-.955-.549-1.956-1.134-1.308-.754-.733-.426-1.036-.6-1.061-.614-1.061-.614-2.177-1.257-1.112-.643-1.116-.643-1.551-.895-1.9-1.1-3.537-2.041-4.461-2.578-1.606-.925-36.4-21.016-1.768-1.023-1.768-1.023-1.768-1.018-10.125-5.846-1.632-.942-41.977-24.238,1.394,247.49c46.8,0,91.649-10.742,124.708-29.892,69.031-39.957,68.886-104.864-.328-144.978" transform="translate(-3016.181 -1212.233)" fill="#343a3f"/>
                    <path id="Path_10094" data-name="Path 10094" d="M3613.734,1584.991,3425.85,1694.179c-103.739,60.283-103.215,158.035,1.205,218.351,50.167,28.976,118.077,45.22,188.75,45.22l-.35-62.486-.349-62.771h0l.346,62.771c-58.843,0-115.381-13.538-157.089-37.648-86.929-50.188-87.409-131.568-1.022-181.74l156.385-90.887" transform="translate(-2970.175 -1212.235)" fill="#343a3f"/>
                    <path id="Path_10095" data-name="Path 10095" d="M3621.445,1584.99l-156.385,90.887c-86.387,50.171-85.9,131.551,1.023,181.74,41.708,24.11,98.246,37.648,157.089,37.648l-.345-62.771h0c-46.831,0-91.8-10.76-125.1-29.922l-.251-.145c-69.206-39.957-69.675-104.77-1-144.8l124.985-72.636" transform="translate(-2977.886 -1212.235)" fill="#d9fbfb"/>
                    <path id="Path_10096" data-name="Path 10096" d="M3629.191,1584.991l-124.986,72.635c-68.677,40.034-68.208,104.826,1,144.8l.251.145c33.3,19.175,78.27,29.905,125.1,29.922h.021l-1.393-247.49" transform="translate(-2985.632 -1212.235)" fill="#18bdba"/>
                    <path id="Path_10097" data-name="Path 10097" d="M4251.7,1449.053c-104.446-60.3-273.2-60.317-376.966,0h-.025l-31.465,18.285c86.361-50.189,226.831-50.189,313.755,0,41.759,24.109,65.294,56.8,65.486,90.883h107.872c-.2-40.95-28.516-80.221-78.657-109.167" transform="translate(-3043.296 -1185.465)" fill="#d9fbfb"/>
                    <path id="Path_10098" data-name="Path 10098" d="M4151.555,1471.825c-86.928-50.188-227.394-50.188-313.755,0h-.026l-31.379,18.234c68.937-39.906,180.84-39.817,250.067.149l.2.119c33.135,19.226,51.829,45.237,52.011,72.363h108.363c-.192-34.089-23.727-66.773-65.486-90.882" transform="translate(-3037.851 -1189.952)" fill="#18bdba"/>
                    <path id="Path_10099" data-name="Path 10099" d="M4034.792,1494.735c-69.227-39.966-181.13-40.055-250.068-.149h-.029L3659.74,1567.2h427.269c-.183-27.127-18.877-53.137-52.012-72.363l-.2-.119" transform="translate(-3016.181 -1194.462)" fill="#343a3f"/>
                    <path id="Path_10100" data-name="Path 10100" d="M4303.239,1584.99H4195.345c.193,34.089-22.971,66.773-64.463,90.882-86.357,50.188-226.857,50.17-313.781,0L3659.714,1585,3848.8,1694.169c104.446,60.3,273.2,60.317,376.966,0,49.855-28.975,77.716-68.234,77.456-109.183" transform="translate(-3016.177 -1212.235)" fill="#343a3f"/>
                    <path id="Path_10101" data-name="Path 10101" d="M4195.345,1584.989H4086.983c.149,27.144-18.251,53.154-51.2,72.363-68.788,40.1-180.84,40.23-250.3.256l-125.773-72.619,157.387,90.87c86.929,50.184,227.424,50.2,313.781,0,41.492-24.11,64.655-56.8,64.463-90.883" transform="translate(-3016.177 -1212.233)" fill="#d9fbfb"/>
                    <path id="Path_10102" data-name="Path 10102" d="M4087.009,1584.991H3659.74l125.773,72.619c69.457,39.974,181.526,39.846,250.3-.256,32.947-19.209,51.347-45.22,51.2-72.364" transform="translate(-3016.181 -1212.235)" fill="#18bdba"/>
                    <path id="Path_10103" data-name="Path 10103" d="M3611.181,1147.606c-70.667,0-138.374,16.274-188.212,45.207-103.768,60.3-103.219,158.09,1.228,218.369l31.695,18.3,3.319,1.917,6.012,3.473,1.279.737,2.587,1.491,1.3.754,4.082,2.356,4.219,2.433,4.325,2.5,4.487,2.6,1.985,1.146,1.824,1.052.95.55.955.55,1.986,1.146,1.278.737.737.426,1.031.6,1.061.609,1.061.614,2.177,1.278,1.116.643,1.112.644,1.551.895,1.9,1.1,3.537,2.045,4.461,2.557,1.606.929,36.4,21.016,1.794,1.036,1.769,1.023,1.743,1.006,10.146,5.859,1.606.925,42.007,24.25-42.007-24.25-1.606-.925-10.146-5.859-1.743-1.006-1.769-1.023-1.794-1.036-36.4-21.016-1.606-.929-4.461-2.557-3.537-2.045-1.9-1.1-1.551-.895-1.112-.644-1.116-.643-2.177-1.278-1.061-.614-1.061-.609-1.031-.6-.737-.426-1.278-.737-1.986-1.146-.955-.55-.95-.55-1.824-1.052-1.985-1.146-4.487-2.6-4.325-2.5-4.219-2.433-4.082-2.356-1.3-.754-2.587-1.491-1.279-.737-6.012-3.473-3.319-1.917c-86.95-50.2-87.41-131.564-1.048-181.752,41.491-24.11,97.845-37.635,156.692-37.635l.358,62.784-.358-62.784-.354-62.486" transform="translate(-2969.748 -1147.606)" fill="#d9fbfb"/>
                    <path id="Path_10104" data-name="Path 10104" d="M3619.314,1220.926c-58.848,0-115.2,13.525-156.692,37.635-86.361,50.188-85.9,131.551,1.048,181.752l3.319,1.917L3473,1445.7l1.279.737,2.587,1.491,1.3.754,4.082,2.356,4.219,2.433,4.325,2.5,4.487,2.6,1.985,1.146,1.824,1.052.95.55.955.55,1.986,1.146,1.278.737.737.426,1.031.6,1.061.609,1.061.614,2.177,1.278,1.116.643,1.112.644,1.551.895,1.9,1.1,3.537,2.045,4.461,2.557,1.606.929,36.4,21.016,1.794,1.036,1.769,1.023,1.743,1.006,10.146,5.859,1.606.925,42.007,24.25-42.007-24.25-1.606-.925-10.146-5.859-1.743-1.006-1.769-1.023-1.794-1.036-36.4-21.016-1.606-.929-4.461-2.557-3.537-2.045-1.9-1.1-1.551-.895-1.112-.644-1.116-.643-2.177-1.278-1.061-.614-1.061-.609-1.031-.6-.737-.426-1.278-.737-1.986-1.146-.955-.55-.95-.55-1.824-1.052-1.985-1.146c-69.215-40.119-69.359-105.021-.354-144.965,33.049-19.145,77.92-29.9,124.742-29.892l-.358-62.784" transform="translate(-2977.528 -1158.44)" fill="#18bdba"/>
                    <path id="Path_10105" data-name="Path 10105" d="M3627.5,1294.6c-46.823,0-91.692,10.747-124.743,29.892-69.006,39.944-68.861,104.846.354,144.965l1.986,1.146,1.824,1.052.95.55.955.55,1.986,1.146,1.278.737.737.426,1.031.6,1.061.609,1.061.614,2.177,1.278,1.116.643,1.112.644,1.551.895,1.9,1.1,3.537,2.045,4.46,2.557,1.606.929,36.4,21.016,1.794,1.036,1.769,1.023,1.743,1.006,10.146,5.859,1.606.925,42.008,24.25-1.416-247.485" transform="translate(-2985.351 -1169.326)" fill="#343a3f"/>
                    <path id="Path_10106" data-name="Path 10106" d="M3845.986,1192.826c-50.142-28.946-118.035-45.22-188.771-45.22l.358,62.486c58.839,0,115.376,13.538,157.11,37.635,86.949,50.2,87.38,131.581,1.022,181.769h.025l31.465-18.285c103.763-60.3,103.214-158.064-1.232-218.369" transform="translate(-3015.808 -1147.606)" fill="#343a3f"/>
                    <path id="Path_10107" data-name="Path 10107" d="M3814.774,1258.561c-41.734-24.1-98.272-37.635-157.114-37.635l.358,62.784,1.415,247.485-1.393-247.49c46.83,0,91.828,10.747,125.1,29.892l.2.115c69.227,39.97,69.742,104.791,1.048,144.88h.029l31.379-18.234c86.357-50.188,85.927-131.568-1.022-181.769" transform="translate(-3015.874 -1158.44)" fill="#d9fbfb"/>
                    <path id="Path_10108" data-name="Path 10108" d="M3783.405,1324.6l-.2-.115c-33.271-19.146-78.27-29.9-125.1-29.893l1.393,247.49,124.955-72.616c68.694-40.054,68.179-104.9-1.048-144.88" transform="translate(-3015.939 -1169.325)" fill="#18bdba"/>
                  </g>
                </g>
              </g>
            </g>
          </g>
        </g>
      </g>
      <g id="Group_10883" data-name="Group 10883" transform="translate(2862.619 731.062)">
        <g id="Group_10880" data-name="Group 10880">
          <path id="Path_10082-2" data-name="Path 10082" d="M4209.188,1257.7l-662.259,384.861-666.591-384.858L3542.6,872.841Z" transform="translate(-2880.337 -872.841)" fill="#18bdba"/>
          <path id="Path_10083-2" data-name="Path 10083" d="M4324.689,1323.633l-.428,150.52L3662,1859.015l.425-150.52Z" transform="translate(-2995.839 -939.451)" fill="#d9fbfb"/>
          <path id="Path_10084-2" data-name="Path 10084" d="M3549.021,1708.5l-.425,150.52L2882,1474.167l.428-150.52Z" transform="translate(-2880.583 -939.453)" fill="#343a3f"/>
        </g>
        <g id="Group_10882" data-name="Group 10882" transform="translate(10.784 5.769)">
          <path id="Path_10085-2" data-name="Path 10085" d="M2892.991,1258.1l651.3-378.494L4199.845,1258.1l-651.3,378.491Z" transform="translate(-2892.991 -879.609)" fill="none"/>
          <g id="Group_10881" data-name="Group 10881" transform="translate(95.7 55.436)">
            <path id="Path_10086-2" data-name="Path 10086" d="M3562.987,1323.722h-557.7c.2,35.475,24.743,69.51,68.191,94.6,90.5,52.274,236.775,52.271,326.7,0l24.933-14.488c-75.046,42.1-195.044,41.676-269.562-1.37-36.168-20.884-56.61-49.213-56.777-78.753h464.214" transform="translate(-3005.284 -1000.667)" fill="#d9fbfb"/>
            <path id="Path_10087-2" data-name="Path 10087" d="M3470.925,1386.676c-59.757,34.589-156.707,34.522-216.708-.118l-.217-.125c-28.743-16.652-44.948-39.194-45.055-62.7h-93.962c.167,29.545,20.607,57.87,56.777,78.754,74.518,43.046,194.515,43.481,269.562,1.37.8-.45,1.591-.9,2.382-1.358l2.88-1.673,5.171-3.01,1.078-.628,2.216-1.292,1.108-.654,3.515-2.043,3.631-2.108,3.749-2.179,3.84-2.216" transform="translate(-3021.493 -1000.67)" fill="#18bdba"/>
            <path id="Path_10088-2" data-name="Path 10088" d="M3595.536,1323.724h-370.3c.107,23.51,16.313,46.052,45.055,62.7l.217.125c60,34.641,156.954,34.714,216.708.119l1.71-.994,1.57-.912.82-.476h.022l.8-.462,1.71-1,1.108-.639.636-.369.89-.517.912-.532.938-.546,1.872-1.09.938-.543.96-.557,1.359-.79,1.617-.938,3.043-1.769,3.841-2.234,1.385-.805,31.343-18.214,1.544-.9,1.525-.886,1.5-.872,8.738-5.074,1.382-.8,36.169-21.02" transform="translate(-3037.785 -1000.669)" fill="#343a3f"/>
            <path id="Path_10089-2" data-name="Path 10089" d="M3563.035,1300.52H3098.773c-.166-29.544,19.942-57.885,55.891-78.78,74.847-43.5,196.609-43.481,271.944,0l-27.469-15.858c-90.52-52.26-236.8-52.26-326.725,0-43.171,25.091-67.306,59.137-67.128,94.626h557.75" transform="translate(-3005.284 -977.465)" fill="#343a3f"/>
            <path id="Path_10090-2" data-name="Path 10090" d="M3579.245,1304.413H3208.922c-.133-23.5,15.84-46.052,44.394-62.7,59.594-34.77,156.7-34.851,216.9-.233l-27.4-15.821c-75.338-43.493-197.1-43.508-271.943,0-35.955,20.9-56.057,49.239-55.89,78.779h464.261" transform="translate(-3021.493 -981.358)" fill="#d9fbfb"/>
            <path id="Path_10091-2" data-name="Path 10091" d="M3595.532,1308.319,3486.5,1245.375c-60.2-34.619-157.323-34.538-216.9.233-28.554,16.647-44.527,39.2-44.394,62.7h370.323" transform="translate(-3037.781 -985.264)" fill="#18bdba"/>
            <path id="Path_10092-2" data-name="Path 10092" d="M3823.894,1432.008l-27.472-15.857c75.338,43.492,75.707,114.021.864,157.518-35.934,20.884-84.8,32.617-135.8,32.617l.307,54.155c61.267,0,119.945-14.089,163.144-39.194,89.906-52.249,89.429-136.978-1.042-189.238" transform="translate(-3102.246 -1014.326)" fill="#d9fbfb"/>
            <path id="Path_10093-2" data-name="Path 10093" d="M3796.371,1413.4l-2.9-1.677-5.211-3.006-1.108-.643-2.238-1.293-1.134-.654-3.538-2.042-3.653-2.109-3.748-2.164-3.893-2.246c59.986,34.766,60.115,91.019.285,125.649-28.651,16.6-67.516,25.906-108.08,25.906h-.019l.3,54.4c51,0,99.862-11.733,135.8-32.617,74.846-43.5,74.469-114.026-.864-157.518" transform="translate(-3102.194 -1011.581)" fill="#18bdba"/>
            <path id="Path_10094-2" data-name="Path 10094" d="M3768.743,1386.651l-1.721-.994-1.58-.912-.824-.476-.827-.476-1.7-.983-1.134-.654-.635-.369-.9-.517-.92-.532-.92-.532-1.887-1.089-.964-.558-.967-.557-1.344-.776-1.651-.953-3.065-1.769-3.867-2.234-1.392-.8-31.545-18.214-1.533-.886-1.532-.886-1.533-.882-8.775-5.067-1.415-.816-36.379-21.006,1.208,214.491c40.564,0,79.429-9.311,108.08-25.907,59.827-34.63,59.7-90.882-.285-125.648" transform="translate(-3101.988 -1000.667)" fill="#343a3f"/>
            <path id="Path_10095-2" data-name="Path 10095" d="M3619.868,1323.724l-162.833,94.63c-89.907,52.245-89.453,136.964,1.045,189.238,43.479,25.112,102.334,39.19,163.583,39.19l-.3-54.155-.3-54.4h0l.3,54.4c-51,0-100-11.733-136.143-32.628-75.339-43.5-75.755-114.026-.886-157.507l135.534-78.769" transform="translate(-3062.116 -1000.669)" fill="#343a3f"/>
            <path id="Path_10096-2" data-name="Path 10096" d="M3626.551,1323.723l-135.534,78.769c-74.869,43.481-74.448,114.01.886,157.507,36.146,20.9,85.146,32.628,136.143,32.628l-.3-54.4h0c-40.587,0-79.559-9.325-108.421-25.933l-.217-.125c-59.979-34.63-60.385-90.8-.864-125.5l108.32-62.951" transform="translate(-3068.8 -1000.669)" fill="#d9fbfb"/>
            <path id="Path_10097-2" data-name="Path 10097" d="M3633.264,1323.724l-108.32,62.951c-59.521,34.7-59.115,90.848.864,125.5l.217.126c28.861,16.619,67.834,25.917,108.42,25.932h.019l-1.208-214.491" transform="translate(-3075.512 -1000.669)" fill="#18bdba"/>
            <path id="Path_10098-2" data-name="Path 10098" d="M4172.772,1205.911c-90.519-52.263-236.771-52.274-326.7,0h-.022l-27.269,15.847c74.846-43.5,196.587-43.5,271.921,0,36.192,20.9,56.588,49.224,56.754,78.765h93.489c-.174-35.49-24.714-69.525-68.169-94.612" transform="translate(-3125.488 -977.468)" fill="#d9fbfb"/>
            <path id="Path_10099-2" data-name="Path 10099" d="M4085.98,1225.647c-75.338-43.5-197.075-43.5-271.921,0h-.022l-27.2,15.8c59.746-34.585,156.728-34.508,216.726.13l.177.1c28.717,16.663,44.918,39.205,45.077,62.715h93.914c-.167-29.545-20.562-57.87-56.754-78.766" transform="translate(-3120.769 -981.357)" fill="#18bdba"/>
            <path id="Path_10100-2" data-name="Path 10100" d="M3984.785,1245.5c-60-34.637-156.979-34.714-216.726-.13h-.025l-108.294,62.933h370.3c-.158-23.51-16.36-46.052-45.077-62.715l-.177-.1" transform="translate(-3101.988 -985.266)" fill="#343a3f"/>
            <path id="Path_10101-2" data-name="Path 10101" d="M4217.439,1323.723h-93.508c.166,29.545-19.909,57.869-55.868,78.765-74.843,43.5-196.609,43.482-271.943,0l-136.4-78.754,163.871,94.612c90.52,52.263,236.774,52.274,326.7,0,43.208-25.113,67.353-59.137,67.128-94.626" transform="translate(-3101.985 -1000.669)" fill="#343a3f"/>
            <path id="Path_10102-2" data-name="Path 10102" d="M4123.931,1323.722h-93.914c.129,23.524-15.818,46.067-44.372,62.715-59.616,34.755-156.728,34.866-216.925.222l-109-62.937,136.4,78.753c75.338,43.493,197.1,43.508,271.943,0,35.959-20.9,56.034-49.224,55.868-78.764" transform="translate(-3101.985 -1000.667)" fill="#d9fbfb"/>
            <path id="Path_10103-2" data-name="Path 10103" d="M4030.039,1323.724h-370.3l109,62.937c60.2,34.644,157.323,34.533,216.925-.222,28.555-16.648,44.5-39.191,44.372-62.715" transform="translate(-3101.988 -1000.669)" fill="#18bdba"/>
            <path id="Path_10104-2" data-name="Path 10104" d="M3617.654,944.657c-61.245,0-119.923,14.1-163.116,39.179-89.933,52.264-89.457,137.011,1.063,189.253l27.469,15.859,2.877,1.662,5.21,3.009,1.108.639,2.242,1.293,1.13.654,3.537,2.042,3.656,2.109,3.749,2.164,3.888,2.249,1.722.994,1.58.912.824.476.827.476,1.721.994,1.109.638.638.37.894.517.919.528.919.532,1.887,1.108.967.558.964.557,1.344.776,1.652.953,3.065,1.773,3.866,2.216,1.393.805,31.549,18.214,1.554.9,1.533.886,1.511.871,8.792,5.078,1.393.8,36.406,21.017-36.406-21.017-1.393-.8-8.792-5.078-1.511-.871-1.533-.886-1.554-.9-31.549-18.214-1.393-.805-3.866-2.216-3.065-1.773-1.652-.953-1.344-.776-.964-.557-.967-.558-1.887-1.108-.919-.532-.919-.528-.894-.517-.638-.37-1.109-.638-1.721-.994-.827-.476-.824-.476-1.58-.912-1.722-.994-3.888-2.249-3.749-2.164-3.656-2.109-3.537-2.042-1.13-.654-2.242-1.293-1.108-.639-5.21-3.009-2.877-1.662c-75.356-43.508-75.755-114.022-.908-157.519,35.959-20.9,84.8-32.617,135.8-32.617l.31,54.414-.31-54.414-.307-54.155" transform="translate(-3061.746 -944.657)" fill="#d9fbfb"/>
            <path id="Path_10105-2" data-name="Path 10105" d="M3624.7,1008.2c-51,0-99.841,11.722-135.8,32.617-74.847,43.5-74.448,114.011.908,157.519l2.877,1.662,5.21,3.009,1.108.639,2.242,1.293,1.13.654,3.537,2.042,3.656,2.109,3.749,2.164,3.888,2.249,1.722.994,1.58.912.824.476.827.476,1.721.994,1.109.638.638.37.894.516.919.528.919.532,1.887,1.108.967.557.964.558,1.344.776,1.652.953,3.065,1.773,3.866,2.216,1.393.8,31.549,18.214,1.554.9,1.533.885,1.511.872,8.792,5.078,1.393.8,36.406,21.017-36.406-21.017-1.393-.8-8.792-5.078-1.511-.872-1.533-.885-1.554-.9-31.549-18.214-1.393-.8-3.866-2.216-3.065-1.773-1.652-.953-1.344-.776-.964-.558-.967-.557-1.887-1.108-.919-.532-.919-.528-.894-.516-.638-.37-1.109-.638-1.721-.994-.827-.476-.824-.476-1.58-.912-1.722-.994c-59.985-34.77-60.111-91.018-.306-125.637,28.643-16.593,67.531-25.917,108.11-25.906l-.31-54.414" transform="translate(-3068.489 -954.047)" fill="#18bdba"/>
            <path id="Path_10106-2" data-name="Path 10106" d="M3631.794,1072.048c-40.579,0-79.466,9.314-108.11,25.907-59.8,34.618-59.68,90.867.306,125.637l1.721.993,1.58.913.824.476.827.476,1.721.994,1.108.638.639.37.893.516.92.528.92.532,1.887,1.108.967.557.964.558,1.344.776,1.652.953,3.065,1.773,3.867,2.216,1.392.8,31.55,18.214,1.555.9,1.533.886,1.51.872,8.793,5.078,1.393.8,36.406,21.017-1.226-214.488" transform="translate(-3075.269 -963.481)" fill="#343a3f"/>
            <path id="Path_10107-2" data-name="Path 10107" d="M3821.152,983.847c-43.456-25.086-102.3-39.19-163.6-39.19l.31,54.155c50.993,0,99.993,11.733,136.162,32.617,75.356,43.508,75.729,114.037.886,157.533h.022l27.27-15.846c89.928-52.26,89.452-136.989-1.067-189.253" transform="translate(-3101.665 -944.657)" fill="#343a3f"/>
            <path id="Path_10108-2" data-name="Path 10108" d="M3794.1,1040.818c-36.169-20.884-85.168-32.617-136.165-32.617l.31,54.413,1.227,214.488-1.208-214.491c40.586,0,79.584,9.314,108.42,25.907l.173.1c60,34.64,60.444,90.819.909,125.563h.025l27.2-15.8c74.842-43.5,74.47-114.026-.887-157.533" transform="translate(-3101.722 -954.047)" fill="#d9fbfb"/>
            <path id="Path_10109" data-name="Path 10109" d="M3766.916,1098.05l-.173-.1c-28.835-16.592-67.834-25.917-108.42-25.906l1.208,214.491,108.294-62.932c59.535-34.715,59.089-90.911-.909-125.563" transform="translate(-3101.779 -963.48)" fill="#18bdba"/>
          </g>
        </g>
      </g>
      <g id="Group_10887" data-name="Group 10887" transform="translate(2964.81 567.518)">
        <g id="Group_10884" data-name="Group 10884">
          <path id="Path_10110" data-name="Path 10110" d="M4124.658,1006.593l-560.374,325.652L3000.246,1006.6l560.373-325.655Z" transform="translate(-3000.246 -680.941)" fill="#18bdba"/>
          <path id="Path_10111" data-name="Path 10111" d="M4222.39,1062.38l-.363,127.364L3661.654,1515.4l.359-127.363Z" transform="translate(-3097.977 -737.304)" fill="#d9fbfb"/>
          <path id="Path_10112" data-name="Path 10112" d="M3566.054,1388.034l-.359,127.363L3001.65,1189.755l.362-127.363Z" transform="translate(-3000.453 -737.305)" fill="#343a3f"/>
        </g>
        <g id="Group_10886" data-name="Group 10886" transform="translate(9.125 4.881)">
          <path id="Path_10113" data-name="Path 10113" d="M3010.952,1006.933l551.1-320.265,554.7,320.261-551.1,320.262Z" transform="translate(-3010.952 -686.668)" fill="none"/>
          <g id="Group_10885" data-name="Group 10885" transform="translate(80.977 46.907)">
            <path id="Path_10114" data-name="Path 10114" d="M3577.872,1062.455h-471.9c.168,30.017,20.936,58.816,57.7,80.047,76.575,44.232,200.348,44.229,276.442,0l21.1-12.26c-63.5,35.624-165.037,35.265-228.091-1.159-30.6-17.671-47.9-41.642-48.042-66.638h392.8" transform="translate(-3105.97 -789.101)" fill="#d9fbfb"/>
            <path id="Path_10115" data-name="Path 10115" d="M3499.973,1115.724c-50.564,29.268-132.6,29.211-183.368-.1l-.184-.106c-24.32-14.09-38.033-33.164-38.123-53.057h-79.506c.141,25,17.437,48.967,48.042,66.638,63.053,36.423,164.591,36.792,228.091,1.159.677-.381,1.347-.762,2.016-1.15l2.437-1.415,4.375-2.547.913-.531,1.875-1.093.938-.553,2.975-1.728,3.071-1.785,3.172-1.843,3.25-1.875" transform="translate(-3119.686 -789.104)" fill="#18bdba"/>
            <path id="Path_10116" data-name="Path 10116" d="M3605.414,1062.457H3292.083c.091,19.893,13.8,38.968,38.123,53.058l.184.106c50.77,29.312,132.808,29.374,183.368.1l1.446-.841,1.329-.771.694-.4h.019l.675-.391,1.446-.844.938-.54.537-.313.753-.437.771-.45.794-.463,1.584-.921.794-.459.812-.472,1.151-.669,1.369-.793,2.574-1.5,3.25-1.891,1.172-.681,26.521-15.412,1.306-.759,1.291-.75,1.269-.737,7.393-4.294,1.169-.682,30.6-17.786" transform="translate(-3133.471 -789.103)" fill="#343a3f"/>
            <path id="Path_10117" data-name="Path 10117" d="M3577.913,1042.823H3185.076c-.141-25,16.874-48.979,47.291-66.659,63.332-36.8,166.363-36.792,230.106,0l-23.243-13.418c-76.594-44.22-200.367-44.22-276.459,0-36.53,21.231-56.951,50.039-56.8,80.068h471.942" transform="translate(-3105.97 -769.469)" fill="#343a3f"/>
            <path id="Path_10118" data-name="Path 10118" d="M3591.629,1046.117H3278.279c-.113-19.88,13.4-38.967,37.564-53.053,50.426-29.421,132.594-29.49,183.53-.2L3476.19,979.48c-63.747-36.8-166.774-36.814-230.105,0-30.424,17.681-47.432,41.663-47.292,66.659h392.837" transform="translate(-3119.686 -772.763)" fill="#d9fbfb"/>
            <path id="Path_10119" data-name="Path 10119" d="M3605.41,1049.422l-92.255-53.26c-50.936-29.293-133.119-29.224-183.53.2-24.162,14.087-37.677,33.173-37.564,53.053H3605.41" transform="translate(-3133.467 -776.068)" fill="#18bdba"/>
            <path id="Path_10120" data-name="Path 10120" d="M3798.639,1154.082l-23.246-13.418c63.747,36.8,64.06,96.48.731,133.285-30.4,17.671-71.753,27.6-114.907,27.6l.259,45.823c51.842,0,101.493-11.921,138.044-33.164,76.075-44.211,75.672-115.905-.881-160.125" transform="translate(-3188.015 -800.659)" fill="#d9fbfb"/>
            <path id="Path_10121" data-name="Path 10121" d="M3775.35,1138.341l-2.453-1.419-4.41-2.544-.937-.544-1.894-1.094-.96-.553-2.993-1.728-3.091-1.784-3.171-1.831-3.294-1.9c50.758,29.418,50.866,77.015.24,106.318-24.243,14.043-57.128,21.92-91.452,21.92h-.016l.257,46.033c43.151,0,84.5-9.928,114.9-27.6,63.332-36.8,63.014-96.484-.731-133.285" transform="translate(-3187.971 -798.336)" fill="#18bdba"/>
            <path id="Path_10122" data-name="Path 10122" d="M3751.973,1115.7l-1.456-.84-1.338-.772-.7-.4-.7-.4-1.434-.831-.959-.553-.538-.313-.759-.437-.778-.45-.778-.45-1.6-.922-.815-.472-.818-.471-1.138-.656-1.4-.806-2.594-1.5-3.271-1.891-1.179-.678-26.692-15.412-1.3-.75-1.3-.75-1.3-.747-7.425-4.287-1.2-.69-30.783-17.774,1.022,181.492c34.324,0,67.21-7.878,91.452-21.921,50.623-29.3,50.517-76.9-.24-106.317" transform="translate(-3187.797 -789.101)" fill="#343a3f"/>
            <path id="Path_10123" data-name="Path 10123" d="M3626,1062.457l-137.782,80.072c-76.075,44.207-75.691,115.892.884,160.124,36.789,21.25,86.591,33.161,138.417,33.161l-.257-45.823-.257-46.033h0l.253,46.033c-43.151,0-84.612-9.928-115.2-27.608-63.747-36.8-64.1-96.483-.75-133.275L3626,1062.457" transform="translate(-3154.059 -789.103)" fill="#343a3f"/>
            <path id="Path_10124" data-name="Path 10124" d="M3631.657,1062.457l-114.683,66.651c-63.35,36.792-62.994,96.471.75,133.275,30.586,17.68,72.047,27.608,115.2,27.608l-.253-46.032h0c-34.343,0-67.319-7.891-91.74-21.943l-.185-.106c-50.751-29.3-51.094-76.832-.731-106.19l91.656-53.267" transform="translate(-3159.714 -789.102)" fill="#d9fbfb"/>
            <path id="Path_10125" data-name="Path 10125" d="M3637.337,1062.457l-91.655,53.266c-50.364,29.359-50.021,76.872.731,106.19l.184.107c24.421,14.062,57.4,21.93,91.74,21.942h.015l-1.021-181.492" transform="translate(-3165.394 -789.103)" fill="#18bdba"/>
            <path id="Path_10126" data-name="Path 10126" d="M4093.845,962.77c-76.594-44.223-200.345-44.233-276.442,0h-.019l-23.074,13.409c63.332-36.8,166.343-36.8,230.088,0,30.624,17.68,47.882,41.651,48.023,66.647h79.105c-.146-30.029-20.912-58.828-57.681-80.056" transform="translate(-3207.681 -769.471)" fill="#d9fbfb"/>
            <path id="Path_10127" data-name="Path 10127" d="M4020.4,979.469c-63.748-36.8-166.756-36.8-230.088,0h-.019l-23.011,13.371c50.554-29.264,132.616-29.2,183.383.11l.15.088c24.3,14.1,38.008,33.173,38.143,53.066h79.465c-.141-25-17.4-48.967-48.023-66.647" transform="translate(-3203.688 -772.762)" fill="#18bdba"/>
            <path id="Path_10128" data-name="Path 10128" d="M3934.778,996.269c-50.767-29.308-132.829-29.373-183.384-.109h-.021l-91.633,53.251h313.33c-.134-19.893-13.843-38.967-38.142-53.066l-.15-.088" transform="translate(-3187.797 -776.069)" fill="#343a3f"/>
            <path id="Path_10129" data-name="Path 10129" d="M4131.639,1062.457h-79.122c.141,25-16.846,48.967-47.273,66.648-63.329,36.8-166.362,36.792-230.106,0l-115.417-66.638,138.66,80.057c76.594,44.223,200.348,44.232,276.442,0,36.56-21.25,56.991-50.039,56.8-80.069" transform="translate(-3187.794 -789.102)" fill="#343a3f"/>
            <path id="Path_10130" data-name="Path 10130" d="M4052.517,1062.455h-79.465c.109,19.906-13.384,38.979-37.545,53.067-50.445,29.408-132.616,29.5-183.552.188l-92.233-53.255,115.417,66.638c63.748,36.8,166.778,36.814,230.106,0,30.427-17.681,47.413-41.651,47.273-66.647" transform="translate(-3187.794 -789.101)" fill="#d9fbfb"/>
            <path id="Path_10131" data-name="Path 10131" d="M3973.07,1062.457H3659.74l92.233,53.255c50.936,29.314,133.119,29.221,183.552-.187,24.161-14.088,37.655-33.161,37.545-53.067" transform="translate(-3187.797 -789.103)" fill="#18bdba"/>
            <path id="Path_10132" data-name="Path 10132" d="M3624.129,741.708c-51.823,0-101.474,11.934-138.022,33.152-76.1,44.223-75.694,115.932.9,160.137l23.243,13.418,2.434,1.406,4.409,2.546.938.541,1.9,1.093.956.553,2.994,1.728,3.094,1.784,3.171,1.831,3.291,1.9,1.457.84,1.337.772.7.4.7.4,1.457.84.938.541.54.313.756.437.778.447.778.45,1.6.937.818.472.816.472,1.138.656,1.4.806,2.594,1.5,3.271,1.875,1.179.681,26.7,15.412,1.316.759,1.3.75,1.278.737,7.44,4.3,1.179.678,30.8,17.784-30.8-17.784-1.179-.678-7.44-4.3-1.278-.737-1.3-.75-1.316-.759-26.7-15.412-1.179-.681-3.271-1.875-2.594-1.5-1.4-.806-1.138-.656-.816-.472-.818-.472-1.6-.937-.778-.45-.778-.447-.756-.437-.54-.313-.937-.541-1.457-.84-.7-.4-.7-.4-1.337-.772-1.457-.84-3.291-1.9-3.171-1.831-3.094-1.784-2.994-1.728-.956-.553-1.9-1.093-.937-.541-4.409-2.546-2.434-1.406c-63.763-36.814-64.1-96.481-.769-133.285,30.427-17.681,71.753-27.6,114.907-27.6l.262,46.041-.262-46.041-.259-45.823" transform="translate(-3153.746 -741.708)" fill="#d9fbfb"/>
            <path id="Path_10133" data-name="Path 10133" d="M3630.094,795.476c-43.155,0-84.481,9.918-114.907,27.6-63.331,36.8-62.995,96.471.769,133.286l2.434,1.406,4.409,2.546.938.54,1.9,1.094.956.553,2.994,1.728,3.094,1.784,3.171,1.831,3.291,1.9,1.457.84,1.337.772.7.4.7.4,1.457.84.938.541.54.312.756.438.778.447.778.45,1.6.937.818.472.816.471,1.138.656,1.4.806,2.594,1.5,3.271,1.875,1.179.682,26.7,15.412,1.316.759,1.3.75,1.278.737,7.44,4.3,1.179.678,30.8,17.784-30.8-17.784-1.179-.678-7.44-4.3-1.278-.737-1.3-.75-1.316-.759-26.7-15.412-1.179-.682-3.271-1.875-2.594-1.5-1.4-.806-1.138-.656-.816-.471-.818-.472-1.6-.937-.778-.45-.778-.447-.756-.438-.54-.312-.937-.541-1.457-.84-.7-.4-.7-.4-1.337-.772-1.457-.84c-50.757-29.421-50.863-77.016-.259-106.308,24.237-14.04,57.141-21.931,91.477-21.921l-.262-46.041" transform="translate(-3159.451 -749.653)" fill="#18bdba"/>
            <path id="Path_10134" data-name="Path 10134" d="M3636.093,849.5c-34.335,0-67.24,7.881-91.477,21.921-50.6,29.292-50.5,76.887.259,106.308l1.457.84,1.337.772.7.4.7.4,1.456.84.938.541.541.312.756.438.778.447.778.45,1.6.937.819.472.816.471,1.137.656,1.4.806,2.595,1.5,3.271,1.875,1.179.682,26.7,15.412,1.316.759,1.3.75,1.278.737,7.441,4.3,1.178.678,30.805,17.784L3636.093,849.5" transform="translate(-3165.188 -757.636)" fill="#343a3f"/>
            <path id="Path_10135" data-name="Path 10135" d="M3796.32,774.869c-36.771-21.228-86.559-33.161-138.432-33.161l.263,45.823c43.148,0,84.609,9.928,115.214,27.6,63.763,36.814,64.079,96.493.75,133.3h.019l23.074-13.408c76.093-44.22,75.69-115.914-.9-160.137" transform="translate(-3187.523 -741.708)" fill="#343a3f"/>
            <path id="Path_10136" data-name="Path 10136" d="M3773.431,823.075c-30.6-17.671-72.066-27.6-115.217-27.6l.262,46.042,1.038,181.489-1.022-181.492c34.342,0,67.34,7.881,91.74,21.92l.146.084c50.767,29.312,51.145,76.847.769,106.246h.021l23.012-13.372c63.329-36.8,63.012-96.483-.75-133.3" transform="translate(-3187.571 -749.653)" fill="#d9fbfb"/>
            <path id="Path_10137" data-name="Path 10137" d="M3750.427,871.5l-.146-.084c-24.4-14.04-57.4-21.931-91.74-21.921l1.022,181.492,91.633-53.25c50.376-29.374,50-76.925-.769-106.246" transform="translate(-3187.62 -757.635)" fill="#18bdba"/>
          </g>
        </g>
      </g>
      <g id="Group_10891" data-name="Group 10891" transform="translate(3067 403.974)">
        <g id="Group_10888" data-name="Group 10888">
          <path id="Path_10138" data-name="Path 10138" d="M4040.127,755.483,3581.64,1021.926l-461.486-266.44,458.487-266.445Z" transform="translate(-3120.154 -489.041)" fill="#18bdba"/>
          <path id="Path_10139" data-name="Path 10139" d="M4120.089,801.128l-.3,104.206-458.487,266.442.294-104.206Z" transform="translate(-3200.116 -535.156)" fill="#d9fbfb"/>
          <path id="Path_10140" data-name="Path 10140" d="M3583.088,1067.572l-.294,104.206L3121.3,905.343l.3-104.206Z" transform="translate(-3120.323 -535.157)" fill="#343a3f"/>
        </g>
        <g id="Group_10890" data-name="Group 10890" transform="translate(7.466 3.994)">
          <path id="Path_10141" data-name="Path 10141" d="M3128.914,755.762l450.9-262.035,453.846,262.032-450.9,262.032Z" transform="translate(-3128.914 -493.727)" fill="none"/>
          <g id="Group_10889" data-name="Group 10889" transform="translate(66.254 38.379)">
            <path id="Path_10142" data-name="Path 10142" d="M3592.758,801.19h-386.1c.138,24.56,17.13,48.122,47.21,65.493,62.652,36.19,163.921,36.188,226.179,0l17.26-10.03c-51.956,29.146-135.03,28.852-186.62-.949-25.04-14.458-39.192-34.071-39.307-54.522h321.378" transform="translate(-3206.655 -577.536)" fill="#d9fbfb"/>
            <path id="Path_10143" data-name="Path 10143" d="M3529.022,844.773c-41.371,23.946-108.489,23.9-150.029-.082l-.15-.087c-19.9-11.528-31.118-27.134-31.192-43.41H3282.6c.115,20.454,14.266,40.064,39.307,54.522,51.59,29.8,134.665,30.1,186.62.949.555-.312,1.1-.624,1.649-.941l1.994-1.158,3.579-2.084.747-.435,1.534-.895.767-.453,2.434-1.414,2.513-1.46,2.6-1.508,2.659-1.534" transform="translate(-3217.877 -577.538)" fill="#18bdba"/>
            <path id="Path_10144" data-name="Path 10144" d="M3615.291,801.191H3358.93c.074,16.276,11.293,31.882,31.192,43.41l.15.087c41.539,23.982,108.66,24.033,150.029.082l1.184-.688,1.087-.631.568-.33h.015l.552-.32,1.184-.69.767-.442.44-.256.616-.358.632-.368.649-.378,1.3-.754.649-.376.665-.386.941-.547,1.12-.649,2.107-1.225,2.659-1.547.959-.557,21.7-12.61,1.069-.621,1.056-.614,1.038-.6,6.049-3.513.956-.557L3615.3,801.2" transform="translate(-3229.156 -577.538)" fill="#343a3f"/>
            <path id="Path_10145" data-name="Path 10145" d="M3592.791,785.126H3271.379c-.115-20.454,13.806-40.074,38.693-54.54,51.817-30.113,136.114-30.1,188.269,0l-19.017-10.979c-62.668-36.18-163.937-36.18-226.195,0-29.888,17.37-46.6,40.941-46.473,65.511h386.135" transform="translate(-3206.655 -561.473)" fill="#343a3f"/>
            <path id="Path_10146" data-name="Path 10146" d="M3604.013,787.822H3347.636c-.092-16.266,10.965-31.882,30.734-43.408,41.258-24.071,108.486-24.128,150.161-.161L3509.563,733.3c-52.157-30.11-136.452-30.121-188.269,0-24.892,14.466-38.808,34.089-38.693,54.54h321.412" transform="translate(-3217.877 -564.168)" fill="#d9fbfb"/>
            <path id="Path_10147" data-name="Path 10147" d="M3615.289,790.526l-75.482-43.577c-41.674-23.967-108.916-23.91-150.161.161-19.769,11.526-30.826,27.142-30.734,43.408h256.376" transform="translate(-3229.153 -566.873)" fill="#18bdba"/>
            <path id="Path_10148" data-name="Path 10148" d="M3773.385,876.156l-19.019-10.979c52.157,30.11,52.413,78.938.6,109.051-24.877,14.458-58.707,22.581-94.015,22.581l.212,37.492c42.416,0,83.04-9.754,112.945-27.134,62.243-36.172,61.913-94.831-.721-131.011" transform="translate(-3273.783 -586.993)" fill="#d9fbfb"/>
            <path id="Path_10149" data-name="Path 10149" d="M3754.33,863.278l-2.007-1.161-3.607-2.081-.767-.445-1.549-.895-.785-.453-2.449-1.414-2.528-1.46-2.6-1.5-2.695-1.555c41.529,24.069,41.618,63.013.2,86.987-19.835,11.49-46.742,17.935-74.825,17.935h-.013l.209,37.663c35.306,0,69.136-8.123,94.013-22.581,51.817-30.113,51.556-78.941-.6-109.051" transform="translate(-3273.747 -585.092)" fill="#18bdba"/>
            <path id="Path_10150" data-name="Path 10150" d="M3735.2,844.756l-1.192-.688-1.094-.632-.57-.33-.573-.33-1.174-.68-.785-.453-.44-.256-.621-.358-.636-.368-.637-.368-1.306-.754-.667-.386-.67-.386-.931-.537-1.143-.66-2.122-1.225-2.677-1.547-.964-.555-21.839-12.61-1.061-.614-1.061-.614-1.061-.611-6.075-3.508-.979-.565-25.186-14.543.836,148.494c28.083,0,54.99-6.445,74.825-17.936,41.418-23.974,41.332-62.918-.2-86.987" transform="translate(-3273.604 -577.536)" fill="#343a3f"/>
            <path id="Path_10151" data-name="Path 10151" d="M3632.136,801.191,3519.406,866.7c-62.243,36.17-61.929,94.821.723,131.011,30.1,17.386,70.846,27.132,113.25,27.132l-.21-37.492-.21-37.663h0l.208,37.663c-35.306,0-69.228-8.123-94.253-22.589-52.157-30.113-52.446-78.941-.614-109.044l93.831-54.532" transform="translate(-3246.001 -577.538)" fill="#343a3f"/>
            <path id="Path_10152" data-name="Path 10152" d="M3636.763,801.191l-93.831,54.532c-51.832,30.1-51.541,78.931.614,109.044,25.025,14.466,58.948,22.589,94.253,22.589l-.207-37.663h0c-28.1,0-55.079-6.456-75.06-17.953l-.151-.087c-41.523-23.974-41.8-62.862-.6-86.882l74.991-43.582" transform="translate(-3250.628 -577.537)" fill="#d9fbfb"/>
            <path id="Path_10153" data-name="Path 10153" d="M3641.411,801.191l-74.991,43.582c-41.207,24.02-40.925,62.9.6,86.882l.15.087c19.981,11.505,46.962,17.943,75.061,17.953h.013l-.836-148.494" transform="translate(-3255.275 -577.538)" fill="#18bdba"/>
            <path id="Path_10154" data-name="Path 10154" d="M4014.916,719.628c-62.667-36.183-163.918-36.19-226.179,0h-.015L3769.843,730.6c51.817-30.113,136.1-30.113,188.253,0,25.056,14.466,39.177,34.078,39.292,54.53h64.723c-.12-24.57-17.11-48.133-47.195-65.5" transform="translate(-3289.874 -561.475)" fill="#d9fbfb"/>
            <path id="Path_10155" data-name="Path 10155" d="M3954.829,733.291c-52.157-30.113-136.436-30.113-188.253,0h-.016l-18.828,10.94c41.363-23.944,108.5-23.89,150.041.089l.123.072c19.881,11.536,31.1,27.142,31.208,43.418h65.017c-.115-20.454-14.236-40.064-39.292-54.53" transform="translate(-3286.607 -564.167)" fill="#18bdba"/>
            <path id="Path_10156" data-name="Path 10156" d="M3884.771,747.037c-41.536-23.979-108.678-24.033-150.041-.089h-.018l-74.973,43.569H3916.1c-.11-16.276-11.326-31.882-31.207-43.418l-.123-.072" transform="translate(-3273.604 -566.874)" fill="#343a3f"/>
            <path id="Path_10157" data-name="Path 10157" d="M4045.839,801.191H3981.1c.115,20.454-13.783,40.064-38.679,54.53-51.814,30.113-136.114,30.1-188.268,0L3659.724,801.2l113.45,65.5c62.667,36.183,163.921,36.19,226.178,0,29.913-17.386,46.63-40.941,46.473-65.511" transform="translate(-3273.602 -577.537)" fill="#343a3f"/>
            <path id="Path_10158" data-name="Path 10158" d="M3981.1,801.19h-65.018c.09,16.286-10.949,31.892-30.719,43.418-41.272,24.061-108.5,24.138-150.179.153l-75.464-43.571,94.433,54.522c52.157,30.11,136.453,30.121,188.268,0,24.9-14.466,38.793-34.078,38.679-54.53" transform="translate(-3273.602 -577.536)" fill="#d9fbfb"/>
            <path id="Path_10159" data-name="Path 10159" d="M3916.1,801.191H3659.74l75.464,43.571c41.674,23.985,108.916,23.908,150.178-.153,19.769-11.526,30.809-27.132,30.719-43.418" transform="translate(-3273.604 -577.538)" fill="#18bdba"/>
            <path id="Path_10160" data-name="Path 10160" d="M3630.6,538.76c-42.4,0-83.024,9.764-112.927,27.124-62.261,36.183-61.931,94.854.736,131.021l19.017,10.978,1.992,1.151,3.607,2.084.767.442,1.552.895.782.453,2.449,1.414,2.531,1.46,2.6,1.5,2.692,1.557,1.191.688,1.094.631.57.33.573.33,1.191.688.767.442.442.256.619.358.636.366.637.368,1.306.767.67.386.667.386.931.537,1.143.66,2.122,1.227,2.677,1.534.964.557,21.841,12.61,1.077.621,1.061.614,1.046.6,6.087,3.516.964.555,25.2,14.55-25.2-14.55-.964-.555-6.087-3.516-1.046-.6-1.061-.614-1.077-.621-21.841-12.61-.964-.557-2.677-1.534-2.122-1.227-1.143-.66-.931-.537-.667-.386-.67-.386-1.306-.767-.637-.368-.636-.366-.619-.358-.442-.256-.767-.442-1.191-.688-.573-.33-.57-.33-1.094-.631-1.191-.688-2.692-1.557-2.6-1.5-2.531-1.46-2.449-1.414-.782-.453-1.552-.895-.767-.442-3.607-2.084-1.992-1.151c-52.17-30.121-52.446-78.938-.629-109.051,24.895-14.466,58.707-22.581,94.015-22.581l.215,37.671-.215-37.671-.212-37.492" transform="translate(-3245.745 -538.76)" fill="#d9fbfb"/>
            <path id="Path_10161" data-name="Path 10161" d="M3635.485,582.752c-35.308,0-69.121,8.115-94.016,22.581-51.817,30.113-51.541,78.931.629,109.051l1.992,1.151,3.607,2.084.767.442,1.552.895.782.453,2.449,1.414,2.531,1.46,2.6,1.5,2.692,1.557,1.191.688,1.094.631.57.33.573.33,1.191.688.767.442.442.256.619.358.636.366.637.368,1.307.767.67.386.667.386.931.537,1.143.66,2.122,1.227,2.677,1.534.964.557,21.841,12.61,1.077.621,1.061.614,1.046.6,6.087,3.516.964.555,25.2,14.55-25.2-14.55-.964-.555-6.087-3.516-1.046-.6-1.061-.614-1.077-.621-21.841-12.61-.964-.557-2.677-1.534-2.122-1.227-1.143-.66-.931-.537-.667-.386-.67-.386-1.307-.767-.637-.368-.636-.366-.619-.358-.442-.256-.767-.442-1.191-.688-.573-.33-.57-.33-1.094-.631-1.191-.688c-41.529-24.071-41.615-63.013-.212-86.979,19.83-11.487,46.752-17.943,74.845-17.935l-.214-37.671" transform="translate(-3250.413 -545.26)" fill="#18bdba"/>
            <path id="Path_10162" data-name="Path 10162" d="M3640.393,626.954c-28.093,0-55.015,6.448-74.845,17.935-41.4,23.967-41.317,62.908.212,86.979l1.191.688,1.094.631.57.33.573.33,1.191.688.767.442.442.256.619.358.636.366.637.368,1.306.767.67.386.667.386.931.537,1.143.66,2.122,1.227,2.677,1.534.964.557,21.842,12.61,1.076.621,1.061.614,1.046.6,6.087,3.516.964.555,25.2,14.55-.849-148.491" transform="translate(-3255.107 -551.792)" fill="#343a3f"/>
            <path id="Path_10163" data-name="Path 10163" d="M3771.487,565.892c-30.085-17.368-70.821-27.132-113.262-27.132l.215,37.492c35.3,0,69.225,8.123,94.266,22.581,52.17,30.121,52.428,78.949.614,109.062h.015l18.879-10.971c62.259-36.18,61.929-94.839-.739-131.021" transform="translate(-3273.381 -538.76)" fill="#343a3f"/>
            <path id="Path_10164" data-name="Path 10164" d="M3752.76,605.333c-25.04-14.458-58.963-22.581-94.268-22.581l.214,37.671.849,148.491-.836-148.494c28.1,0,55.1,6.448,75.06,17.935l.121.069c41.536,23.982,41.845,62.875.628,86.928h.018l18.828-10.94c51.814-30.113,51.556-78.941-.614-109.062" transform="translate(-3273.42 -545.26)" fill="#d9fbfb"/>
            <path id="Path_10165" data-name="Path 10165" d="M3733.939,644.955l-.12-.069c-19.963-11.487-46.962-17.943-75.06-17.935l.836,148.494,74.973-43.569c41.217-24.033,40.907-62.939-.629-86.928" transform="translate(-3273.46 -551.791)" fill="#18bdba"/>
          </g>
        </g>
      </g>
      <g id="Group_10895" data-name="Group 10895" transform="translate(3169.189 240.429)">
        <g id="Group_10892" data-name="Group 10892" transform="translate(0 0)">
          <path id="Path_10166" data-name="Path 10166" d="M3955.6,504.374,3599,711.607,3240.062,504.376l356.6-207.235Z" transform="translate(-3240.062 -297.141)" fill="#18bdba"/>
          <path id="Path_10167" data-name="Path 10167" d="M4017.79,539.875l-.23,81.049-356.6,207.233.229-81.049Z" transform="translate(-3302.255 -333.008)" fill="#d9fbfb"/>
          <path id="Path_10168" data-name="Path 10168" d="M3600.122,747.109l-.229,81.049L3240.955,620.932l.231-81.049Z" transform="translate(-3240.194 -333.009)" fill="#343a3f"/>
        </g>
        <g id="Group_10894" data-name="Group 10894" transform="translate(5.807 3.106)">
          <path id="Path_10169" data-name="Path 10169" d="M3246.875,504.59l350.7-203.8,352.992,203.8-350.7,203.8Z" transform="translate(-3246.875 -300.786)" fill="none"/>
          <g id="Group_10893" data-name="Group 10893" transform="translate(51.531 29.85)">
            <path id="Path_10170" data-name="Path 10170" d="M3607.642,539.923h-300.3c.107,19.1,13.323,37.429,36.718,50.939,48.729,28.148,127.494,28.146,175.917,0l13.425-7.8c-40.41,22.669-105.023,22.441-145.148-.737-19.476-11.245-30.483-26.5-30.573-42.406h249.961" transform="translate(-3307.341 -365.97)" fill="#d9fbfb"/>
            <path id="Path_10171" data-name="Path 10171" d="M3558.07,573.821c-32.177,18.625-84.381,18.589-116.689-.063l-.117-.068c-15.477-8.966-24.2-21.1-24.261-33.763h-50.595c.09,15.908,11.1,31.16,30.573,42.406,40.125,23.178,104.739,23.413,145.149.738.431-.243.856-.486,1.283-.732l1.551-.9,2.783-1.621.582-.338,1.193-.7.6-.352,1.893-1.1,1.955-1.135,2.018-1.174,2.068-1.193" transform="translate(-3316.069 -365.972)" fill="#18bdba"/>
            <path id="Path_10172" data-name="Path 10172" d="M3625.169,539.924H3425.776c.058,12.659,8.784,24.8,24.261,33.764l.117.067c32.308,18.653,84.514,18.693,116.689.064l.92-.535.845-.491.442-.257h.012l.429-.249.92-.537.6-.343.342-.2.48-.278.491-.287.505-.294,1.008-.586.5-.292.517-.3.732-.425.871-.505,1.638-.952,2.068-1.2.746-.434,16.877-9.807.832-.483.821-.477.807-.469,4.705-2.732.744-.434,19.475-11.319" transform="translate(-3324.841 -365.971)" fill="#343a3f"/>
            <path id="Path_10173" data-name="Path 10173" d="M3607.668,527.429H3357.681c-.089-15.908,10.738-31.168,30.1-42.419,40.3-23.421,105.867-23.414,146.431,0l-14.792-8.539c-48.741-28.14-127.506-28.14-175.929,0-23.246,13.51-36.241,31.843-36.146,50.953h300.327" transform="translate(-3307.341 -353.477)" fill="#343a3f"/>
            <path id="Path_10174" data-name="Path 10174" d="M3616.4,529.526h-199.4c-.072-12.651,8.529-24.8,23.9-33.761,32.089-18.722,84.378-18.766,116.792-.125l-14.753-8.519c-40.567-23.419-106.129-23.427-146.431,0-19.36,11.251-30.184,26.513-30.094,42.42H3616.4" transform="translate(-3316.069 -355.573)" fill="#d9fbfb"/>
            <path id="Path_10175" data-name="Path 10175" d="M3625.167,531.629l-58.708-33.893c-32.414-18.641-84.712-18.6-116.792.125-15.375,8.965-23.976,21.111-23.9,33.761h199.4" transform="translate(-3324.839 -357.677)" fill="#18bdba"/>
            <path id="Path_10176" data-name="Path 10176" d="M3748.131,598.231l-14.792-8.539c40.566,23.419,40.765,61.4.465,84.818-19.349,11.245-45.662,17.562-73.124,17.562l.166,29.16c32.99,0,64.586-7.586,87.846-21.1,48.411-28.134,48.155-73.758-.561-101.9" transform="translate(-3359.551 -373.325)" fill="#d9fbfb"/>
            <path id="Path_10177" data-name="Path 10177" d="M3733.31,588.214l-1.561-.9-2.806-1.619-.6-.346-1.205-.7-.61-.352-1.9-1.1-1.967-1.135-2.018-1.166-2.1-1.208c32.3,18.72,32.37,49.01.154,67.656-15.427,8.937-36.355,13.949-58.2,13.949h-.01l.164,29.293c27.459,0,53.772-6.318,73.121-17.563,40.3-23.42,40.1-61.4-.465-84.817" transform="translate(-3359.523 -371.847)" fill="#18bdba"/>
            <path id="Path_10178" data-name="Path 10178" d="M3718.434,573.808l-.927-.534-.851-.492-.444-.257-.445-.257-.913-.528-.611-.352-.342-.2-.483-.278-.5-.287-.5-.286-1.017-.586-.519-.3-.521-.3-.724-.418-.889-.513-1.651-.952-2.082-1.2-.749-.431-16.987-9.808-.825-.477-.826-.477-.825-.476-4.725-2.728-.762-.44-19.589-11.311.65,115.5c21.842,0,42.77-5.013,58.2-13.949,32.214-18.647,32.147-48.936-.154-67.656" transform="translate(-3359.412 -365.97)" fill="#343a3f"/>
            <path id="Path_10179" data-name="Path 10179" d="M3638.271,539.924l-87.68,50.955c-48.411,28.132-48.167,73.749.563,101.9,23.411,13.522,55.1,21.1,88.083,21.1l-.164-29.16-.163-29.293h0l.161,29.293c-27.46,0-53.844-6.318-73.307-17.569-40.567-23.42-40.792-61.4-.477-84.811l72.979-42.414" transform="translate(-3337.943 -365.971)" fill="#343a3f"/>
            <path id="Path_10180" data-name="Path 10180" d="M3641.869,539.924l-72.979,42.414c-40.314,23.414-40.087,61.391.477,84.812,19.463,11.251,45.848,17.569,73.308,17.569l-.161-29.294h0c-21.855,0-42.84-5.021-58.38-13.963l-.118-.068c-32.3-18.646-32.514-48.892-.465-67.575l58.326-33.9" transform="translate(-3341.541 -365.971)" fill="#d9fbfb"/>
            <path id="Path_10181" data-name="Path 10181" d="M3645.484,539.924l-58.326,33.9c-32.05,18.683-31.831,48.918.465,67.576l.117.067c15.541,8.948,36.526,13.955,58.38,13.964h.01l-.65-115.5" transform="translate(-3345.156 -365.971)" fill="#18bdba"/>
            <path id="Path_10182" data-name="Path 10182" d="M3935.988,476.487c-48.741-28.143-127.492-28.148-175.917,0h-.012l-14.683,8.533c40.3-23.421,105.855-23.421,146.418,0,19.488,11.251,30.471,26.505,30.561,42.412h50.34c-.094-19.11-13.308-37.436-36.707-50.944" transform="translate(-3372.066 -353.479)" fill="#d9fbfb"/>
            <path id="Path_10183" data-name="Path 10183" d="M3889.253,487.113c-40.566-23.421-106.117-23.421-146.418,0h-.012l-14.644,8.509c32.17-18.622,84.392-18.58,116.7.07l.1.055c15.463,8.972,24.187,21.111,24.272,33.77h50.569c-.09-15.909-11.072-31.16-30.561-42.411" transform="translate(-3369.525 -355.572)" fill="#18bdba"/>
            <path id="Path_10184" data-name="Path 10184" d="M3834.764,497.8c-32.306-18.65-84.527-18.692-116.7-.069h-.014l-58.312,33.887h199.392c-.085-12.659-8.81-24.8-24.272-33.77l-.1-.055" transform="translate(-3359.412 -357.677)" fill="#343a3f"/>
            <path id="Path_10185" data-name="Path 10185" d="M3960.039,539.924h-50.35c.09,15.909-10.72,31.161-30.083,42.412-40.3,23.421-105.867,23.413-146.431,0l-73.447-42.406,88.238,50.945c48.741,28.142,127.494,28.148,175.917,0,23.266-13.522,36.268-31.843,36.146-50.953" transform="translate(-3359.41 -365.971)" fill="#343a3f"/>
            <path id="Path_10186" data-name="Path 10186" d="M3909.689,539.923H3859.12c.07,12.668-8.516,24.805-23.892,33.77-32.1,18.714-84.392,18.774-116.806.119l-58.693-33.889,73.447,42.406c40.567,23.419,106.131,23.427,146.431,0,19.363-11.251,30.173-26.505,30.083-42.412" transform="translate(-3359.41 -365.97)" fill="#d9fbfb"/>
            <path id="Path_10187" data-name="Path 10187" d="M3859.132,539.924H3659.74l58.694,33.889c32.414,18.655,84.712,18.595,116.806-.119,15.376-8.965,23.962-21.1,23.892-33.77" transform="translate(-3359.412 -365.971)" fill="#18bdba"/>
            <path id="Path_10188" data-name="Path 10188" d="M3637.078,335.811c-32.978,0-64.574,7.594-87.832,21.1-48.425,28.142-48.168,73.775.573,101.905l14.792,8.539,1.548.895,2.807,1.621.6.343,1.207.7.609.352,1.905,1.1,1.969,1.136,2.018,1.165,2.094,1.211.926.535.852.491.443.257.446.257.927.535.6.344.344.2.481.279.5.284.495.286,1.016.6.521.3.519.3.724.418.89.513,1.65.954,2.082,1.193.75.434,16.987,9.807.838.483.825.477.813.469,4.735,2.735.75.431,19.6,11.317-19.6-11.317-.75-.431-4.735-2.735-.813-.469-.825-.477-.838-.483-16.987-9.807-.75-.434-2.082-1.193-1.65-.954-.89-.513-.724-.418-.519-.3-.521-.3-1.016-.6-.495-.286-.5-.284-.481-.279-.344-.2-.6-.344-.927-.535-.446-.257-.443-.257-.852-.491-.926-.535-2.094-1.211-2.018-1.165-1.969-1.136-1.905-1.1-.609-.352-1.207-.7-.6-.343-2.807-1.621-1.548-.895c-40.577-23.427-40.792-61.4-.489-84.818,19.363-11.251,45.661-17.563,73.123-17.563l.167,29.3-.167-29.3-.166-29.16" transform="translate(-3337.743 -335.811)" fill="#d9fbfb"/>
            <path id="Path_10189" data-name="Path 10189" d="M3640.875,370.027c-27.462,0-53.761,6.312-73.123,17.563-40.3,23.421-40.088,61.391.489,84.818l1.548.895,2.807,1.621.6.343,1.207.7.609.352,1.905,1.1,1.969,1.136,2.018,1.165,2.094,1.211.926.535.852.491.443.257.446.257.927.535.6.343.344.2.481.278.5.285.495.286,1.016.6.521.3.519.3.724.418.89.513,1.65.954,2.082,1.193.75.433,16.987,9.808.838.484.825.476.813.47,4.735,2.734.75.432,19.6,11.317-19.6-11.317-.75-.432-4.735-2.734-.813-.47-.825-.476-.838-.484-16.987-9.808-.75-.433-2.082-1.193-1.65-.954-.89-.513-.724-.418-.519-.3-.521-.3-1.016-.6-.495-.286-.5-.285-.481-.278-.344-.2-.6-.343-.927-.535-.446-.257-.443-.257-.852-.491-.926-.535c-32.3-18.722-32.367-49.01-.165-67.651,15.424-8.935,36.363-13.955,58.214-13.949l-.167-29.3" transform="translate(-3341.374 -340.867)" fill="#18bdba"/>
            <path id="Path_10190" data-name="Path 10190" d="M3644.692,404.407c-21.851,0-42.79,5.015-58.213,13.949-32.2,18.641-32.135,48.929.165,67.651l.926.535.851.491.444.257.445.257.927.535.6.343.344.2.481.278.5.285.5.286,1.016.6.521.3.519.3.724.418.889.513,1.651.954,2.081,1.193.75.433,16.989,9.808.837.483.825.477.814.47,4.735,2.734.749.432,19.6,11.317-.66-115.493" transform="translate(-3345.025 -345.947)" fill="#343a3f"/>
            <path id="Path_10191" data-name="Path 10191" d="M3746.654,356.914c-23.4-13.509-55.083-21.1-88.093-21.1l.167,29.16c27.458,0,53.843,6.318,73.318,17.563,40.577,23.427,40.778,61.4.477,84.826h.012l14.684-8.533c48.423-28.14,48.167-73.764-.574-101.905" transform="translate(-3359.238 -335.811)" fill="#343a3f"/>
            <path id="Path_10192" data-name="Path 10192" d="M3732.089,387.59c-19.475-11.245-45.86-17.563-73.32-17.563l.167,29.3.66,115.493-.65-115.5c21.854,0,42.853,5.015,58.38,13.95l.093.054c32.307,18.652,32.547,48.9.49,67.611h.014l14.643-8.509c40.3-23.421,40.1-61.4-.477-84.826" transform="translate(-3359.269 -340.867)" fill="#d9fbfb"/>
            <path id="Path_10193" data-name="Path 10193" d="M3717.45,418.408l-.093-.054c-15.527-8.935-36.526-13.956-58.38-13.95l.65,115.5,58.312-33.887c32.058-18.692,31.817-48.952-.49-67.611" transform="translate(-3359.299 -345.947)" fill="#18bdba"/>
          </g>
        </g>
      </g>
      <g id="Group_10899" data-name="Group 10899" transform="translate(3271.38 76.885)">
        <g id="Group_10896" data-name="Group 10896">
          <path id="Path_10194" data-name="Path 10194" d="M3871.066,253.265,3616.351,401.288,3359.97,253.266l254.715-148.025Z" transform="translate(-3359.97 -105.241)" fill="#18bdba"/>
          <path id="Path_10195" data-name="Path 10195" d="M3915.49,278.623l-.165,57.892L3660.61,484.539l.163-57.892Z" transform="translate(-3404.393 -130.86)" fill="#d9fbfb"/>
          <path id="Path_10196" data-name="Path 10196" d="M3617.156,426.647l-.163,57.892L3360.608,336.52l.165-57.892Z" transform="translate(-3360.064 -130.861)" fill="#343a3f"/>
        </g>
        <g id="Group_10898" data-name="Group 10898" transform="translate(4.148 2.219)">
          <path id="Path_10197" data-name="Path 10197" d="M3364.836,253.419l250.5-145.575,252.137,145.573-250.5,145.573Z" transform="translate(-3364.836 -107.844)" fill="none"/>
          <g id="Group_10897" data-name="Group 10897" transform="translate(36.807 21.322)">
            <path id="Path_10198" data-name="Path 10198" d="M3622.527,278.657h-214.5c.077,13.644,9.517,26.735,26.228,36.385,34.807,20.106,91.067,20.1,125.655,0l9.59-5.572c-28.865,16.193-75.017,16.029-103.678-.528-13.911-8.032-21.773-18.928-21.837-30.289h178.544" transform="translate(-3408.025 -154.405)" fill="#d9fbfb"/>
            <path id="Path_10199" data-name="Path 10199" d="M3587.119,302.87c-22.984,13.3-60.272,13.278-83.349-.046l-.084-.048c-11.054-6.4-17.288-15.075-17.329-24.117h-36.139c.064,11.364,7.926,22.258,21.837,30.29,28.661,16.556,74.813,16.723,103.678.527.308-.173.612-.346.916-.522l1.108-.643,1.988-1.157.415-.242.852-.5.426-.251,1.353-.786,1.4-.81,1.442-.839,1.477-.852" transform="translate(-3414.26 -154.406)" fill="#18bdba"/>
            <path id="Path_10200" data-name="Path 10200" d="M3635.046,278.658H3492.623c.041,9.042,6.274,17.712,17.329,24.117l.084.049c23.077,13.323,60.366,13.351,83.349.045l.657-.382.6-.351.315-.183h.009l.307-.177.657-.383.426-.246.245-.142.342-.2.351-.2.361-.21.72-.419.36-.209.369-.215.523-.3.622-.361,1.17-.68,1.477-.859.533-.31,12.056-7.005.593-.345.586-.341.577-.335,3.36-1.952.532-.309,13.911-8.085" transform="translate(-3420.526 -154.406)" fill="#343a3f"/>
            <path id="Path_10201" data-name="Path 10201" d="M3622.546,269.733H3443.983c-.064-11.364,7.67-22.264,21.5-30.3,28.788-16.729,75.62-16.723,104.594,0l-10.565-6.1c-34.815-20.1-91.076-20.1-125.664,0-16.6,9.65-25.886,22.744-25.818,36.395h214.52" transform="translate(-3408.026 -145.481)" fill="#343a3f"/>
            <path id="Path_10202" data-name="Path 10202" d="M3628.78,271.231H3486.349c-.051-9.037,6.092-17.713,17.074-24.116,22.921-13.373,60.27-13.4,83.423-.089l-10.538-6.085c-28.976-16.728-75.806-16.734-104.593,0-13.829,8.037-21.561,18.938-21.5,30.3H3628.78" transform="translate(-3414.26 -146.979)" fill="#d9fbfb"/>
            <path id="Path_10203" data-name="Path 10203" d="M3635.045,272.733l-41.934-24.209c-23.153-13.315-60.509-13.284-83.423.089-10.983,6.4-17.126,15.079-17.074,24.116h142.432" transform="translate(-3420.524 -148.481)" fill="#18bdba"/>
            <path id="Path_10204" data-name="Path 10204" d="M3722.876,320.305l-10.566-6.1c28.976,16.728,29.118,43.854.332,60.584-13.82,8.032-32.615,12.545-52.23,12.545l.118,20.829c23.564,0,46.133-5.419,62.748-15.074,34.58-20.1,34.4-52.684-.4-72.784" transform="translate(-3445.319 -159.659)" fill="#d9fbfb"/>
            <path id="Path_10205" data-name="Path 10205" d="M3712.29,313.15l-1.115-.645-2-1.156-.426-.247-.861-.5-.436-.251-1.36-.785-1.405-.811-1.441-.833-1.5-.863c23.072,13.372,23.121,35.007.109,48.326-11.019,6.383-25.968,9.964-41.569,9.964h-.008l.117,20.923c19.614,0,38.409-4.513,52.229-12.545,28.787-16.729,28.643-43.856-.332-60.584" transform="translate(-3445.299 -158.603)" fill="#18bdba"/>
            <path id="Path_10206" data-name="Path 10206" d="M3701.664,302.861l-.662-.383-.607-.35-.317-.183-.318-.183-.652-.378-.435-.251-.245-.141-.345-.2-.354-.2-.354-.2-.726-.418-.371-.215-.373-.215-.516-.3-.635-.366-1.179-.68-1.487-.859-.535-.309-12.133-7.005-.59-.341-.59-.341-.59-.339-3.375-1.949-.544-.314-13.992-8.078.464,82.5c15.6,0,30.55-3.58,41.569-9.964,23.01-13.32,22.963-34.954-.109-48.326" transform="translate(-3445.219 -154.405)" fill="#343a3f"/>
            <path id="Path_10207" data-name="Path 10207" d="M3644.4,278.658l-62.628,36.4c-34.58,20.095-34.4,52.678.4,72.784,16.722,9.658,39.359,15.073,62.917,15.073l-.117-20.829-.117-20.923h0l.115,20.923c-19.614,0-38.46-4.513-52.362-12.549-28.976-16.729-29.137-43.856-.341-60.58l52.128-30.3" transform="translate(-3429.884 -154.406)" fill="#343a3f"/>
            <path id="Path_10208" data-name="Path 10208" d="M3646.975,278.658l-52.129,30.3c-28.8,16.723-28.633,43.85.341,60.58,13.9,8.037,32.749,12.549,52.363,12.549l-.115-20.923h0c-15.61,0-30.6-3.587-41.7-9.975l-.084-.048c-23.068-13.32-23.224-34.924-.332-48.268l41.662-24.212" transform="translate(-3432.455 -154.406)" fill="#d9fbfb"/>
            <path id="Path_10209" data-name="Path 10209" d="M3649.557,278.658,3607.9,302.87c-22.893,13.344-22.737,34.942.333,48.267l.083.049c11.1,6.392,26.09,9.969,41.7,9.974h.007l-.464-82.5" transform="translate(-3435.036 -154.406)" fill="#18bdba"/>
            <path id="Path_10210" data-name="Path 10210" d="M3857.06,233.345c-34.815-20.1-91.066-20.105-125.655,0h-.009l-10.489,6.1c28.787-16.729,75.61-16.729,104.585,0,13.92,8.037,21.765,18.932,21.829,30.294h35.957c-.066-13.65-9.5-26.741-26.219-36.39" transform="translate(-3454.258 -145.483)" fill="#d9fbfb"/>
            <path id="Path_10211" data-name="Path 10211" d="M3823.678,240.936c-28.976-16.729-75.8-16.729-104.585,0h-.009l-10.459,6.078c22.979-13.3,60.28-13.273,83.356.049l.068.04c11.045,6.409,17.276,15.079,17.338,24.121h36.12c-.064-11.363-7.909-22.258-21.828-30.294" transform="translate(-3452.443 -146.978)" fill="#18bdba"/>
            <path id="Path_10212" data-name="Path 10212" d="M3784.757,248.573c-23.076-13.322-60.377-13.352-83.356-.05h-.01l-41.651,24.205h142.422c-.061-9.042-6.292-17.712-17.337-24.121l-.068-.04" transform="translate(-3445.219 -148.482)" fill="#343a3f"/>
            <path id="Path_10213" data-name="Path 10213" d="M3874.239,278.658h-35.964c.064,11.363-7.657,22.257-21.487,30.294-28.786,16.729-75.619,16.724-104.593,0l-52.463-30.289,63.027,36.389c34.816,20.1,91.067,20.106,125.656,0,16.619-9.658,25.905-22.744,25.819-36.395" transform="translate(-3445.218 -154.406)" fill="#343a3f"/>
            <path id="Path_10214" data-name="Path 10214" d="M3838.274,278.657h-36.12c.05,9.047-6.083,17.718-17.066,24.121-22.929,13.367-60.28,13.41-83.432.085l-41.925-24.206,52.463,30.289c28.976,16.729,75.807,16.734,104.593,0,13.83-8.037,21.551-18.932,21.487-30.294" transform="translate(-3445.218 -154.405)" fill="#d9fbfb"/>
            <path id="Path_10215" data-name="Path 10215" d="M3802.162,278.658H3659.74l41.924,24.206c23.153,13.325,60.509,13.282,83.432-.085,10.983-6.4,17.116-15.074,17.066-24.121" transform="translate(-3445.219 -154.406)" fill="#18bdba"/>
            <path id="Path_10216" data-name="Path 10216" d="M3643.553,132.863c-23.556,0-46.125,5.424-62.738,15.068-34.59,20.1-34.406,52.7.409,72.79l10.565,6.1,1.106.639,2,1.157.426.246.863.5.435.251,1.36.786,1.406.81,1.442.833,1.5.865.662.382.607.351.317.183.318.183.662.382.426.246.245.142.344.2.354.2.354.2.726.426.372.215.371.215.517.3.635.366,1.178.682,1.487.852.536.309,12.134,7.005.6.345.589.341.581.335,3.382,1.953.536.309,14,8.083-14-8.083-.536-.309-3.382-1.953-.581-.335-.589-.341-.6-.345-12.134-7.005-.536-.309-1.487-.852-1.178-.682-.635-.366-.517-.3-.371-.215-.372-.215-.726-.426-.354-.2-.354-.2-.344-.2-.245-.142-.426-.246-.662-.382-.318-.183-.317-.183-.607-.351-.662-.382-1.5-.865-1.442-.833-1.406-.81-1.36-.786-.435-.251-.863-.5-.426-.246-2-1.157-1.106-.639c-28.984-16.734-29.137-43.854-.349-60.584,13.83-8.037,32.615-12.545,52.23-12.545l.12,20.928-.12-20.928-.117-20.829" transform="translate(-3429.742 -132.863)" fill="#d9fbfb"/>
            <path id="Path_10217" data-name="Path 10217" d="M3646.264,157.3c-19.615,0-38.4,4.508-52.23,12.545-28.788,16.729-28.635,43.85.349,60.584l1.106.639,2,1.157.426.246.862.5.435.251,1.36.786,1.406.81,1.442.833,1.5.865.662.382.607.351.317.183.318.183.662.382.426.246.245.141.344.2.354.2.354.2.726.426.372.215.371.215.517.3.635.366,1.178.682,1.487.853.536.309,12.134,7.005.6.345.589.341.581.335,3.382,1.953.536.309,14,8.083-14-8.083-.536-.309-3.382-1.953-.581-.335-.589-.341-.6-.345-12.134-7.005-.536-.309-1.487-.853-1.178-.682-.635-.366-.517-.3-.371-.215-.372-.215-.726-.426-.354-.2-.354-.2-.344-.2-.245-.141-.426-.246-.662-.382-.318-.183-.317-.183-.607-.351-.662-.382c-23.072-13.373-23.12-35.007-.118-48.322,11.016-6.382,25.973-9.969,41.581-9.964l-.119-20.928" transform="translate(-3432.335 -136.474)" fill="#18bdba"/>
            <path id="Path_10218" data-name="Path 10218" d="M3648.991,181.859c-15.607,0-30.564,3.583-41.581,9.964-23,13.315-22.953,34.949.118,48.322l.661.382.608.351.317.183.319.183.661.382.426.246.246.141.344.2.354.2.354.2.725.426.372.215.371.214.517.3.635.366,1.178.682,1.487.852.535.31,12.135,7.005.6.345.59.341.581.335,3.382,1.953.535.308,14,8.083-.471-82.495" transform="translate(-3434.943 -140.103)" fill="#343a3f"/>
            <path id="Path_10219" data-name="Path 10219" d="M3721.821,147.936c-16.713-9.648-39.344-15.073-62.923-15.073l.119,20.829c19.613,0,38.459,4.513,52.37,12.545,28.983,16.734,29.127,43.86.341,60.59h.009l10.489-6.1c34.588-20.1,34.4-52.688-.411-72.79" transform="translate(-3445.095 -132.863)" fill="#343a3f"/>
            <path id="Path_10220" data-name="Path 10220" d="M3711.418,169.848c-13.911-8.032-32.757-12.545-52.372-12.545l.12,20.928.472,82.5-.464-82.5c15.61,0,30.609,3.582,41.7,9.964l.066.038c23.076,13.324,23.247,34.931.349,48.294h.01l10.459-6.078c28.786-16.729,28.642-43.856-.341-60.59" transform="translate(-3445.117 -136.474)" fill="#d9fbfb"/>
            <path id="Path_10221" data-name="Path 10221" d="M3700.961,191.86l-.066-.038c-11.091-6.382-26.09-9.968-41.7-9.964l.464,82.5,41.651-24.205c22.9-13.352,22.727-34.966-.349-48.294" transform="translate(-3445.139 -140.103)" fill="#18bdba"/>
          </g>
        </g>
      </g>
      <g id="Group_10837-2" data-name="Group 10837" transform="translate(3373.57 -86.659)">
        <g id="Group_10832-2" data-name="Group 10832">
          <g id="Group_10831-2" data-name="Group 10831">
            <g id="Group_10828-2" data-name="Group 10828">
              <path id="Path_10082-3" data-name="Path 10082" d="M3786.536,2.155,3633.707,90.969,3479.878,2.156l152.829-88.815Z" transform="translate(-3479.878 86.659)" fill="#18bdba"/>
            </g>
            <g id="Group_10829-2" data-name="Group 10829" transform="translate(153.73 88.657)">
              <path id="Path_10083-3" data-name="Path 10083" d="M3813.19,17.37l-.1,34.735L3660.262,140.92l.1-34.735Z" transform="translate(-3660.262 -17.37)" fill="#d9fbfb"/>
            </g>
            <g id="Group_10830-2" data-name="Group 10830" transform="translate(0.326 88.66)">
              <path id="Path_10084-3" data-name="Path 10084" d="M3634.189,106.185l-.1,34.735-153.83-88.812.1-34.735Z" transform="translate(-3480.261 -17.373)" fill="#343a3f"/>
            </g>
          </g>
        </g>
        <g id="Group_10836-2" data-name="Group 10836" transform="translate(2.488 1.331)">
          <g id="Group_10835-2" data-name="Group 10835">
            <g id="Group_10901" data-name="Group 10901">
              <g id="Group_10900" data-name="Group 10900" clip-path="url(#clip-path-3)">
                <g id="Group_10834-2" data-name="Group 10834" transform="translate(22.085 12.793)">
                  <g id="Group_10833-2" data-name="Group 10833">
                    <path id="Path_10085-3" data-name="Path 10085" d="M3637.413,17.391h-128.7c.046,8.187,5.71,16.041,15.737,21.831,20.884,12.063,54.64,12.063,75.393,0l5.753-3.343c-17.318,9.715-45.01,9.617-62.207-.316-8.347-4.819-13.064-11.357-13.1-18.174h107.126" transform="translate(-3508.712 57.161)" fill="#d9fbfb"/>
                    <path id="Path_10086-3" data-name="Path 10086" d="M3616.167,31.918c-13.79,7.982-36.163,7.967-50.009-.027l-.05-.029c-6.633-3.843-10.373-9.045-10.4-14.47h-21.683c.038,6.818,4.755,13.355,13.1,18.174,17.2,9.934,44.888,10.034,62.207.316.185-.1.367-.208.55-.314l.665-.386,1.193-.695.249-.145.511-.3.256-.151.812-.471.837-.487.865-.5.886-.511" transform="translate(-3512.453 57.16)" fill="#18bdba"/>
                    <path id="Path_10087-3" data-name="Path 10087" d="M3644.924,17.391H3559.47c.024,5.425,3.764,10.627,10.4,14.47l.05.029c13.847,7.994,36.22,8.011,50.009.027l.395-.229.362-.211.189-.11h0l.184-.107.395-.23.256-.147.146-.085.206-.119.21-.123.216-.126.432-.251.216-.125.222-.129.313-.182.374-.216.7-.408.886-.516.32-.186,7.233-4.2.356-.207.352-.2.346-.2,2.016-1.171.319-.186,8.347-4.851" transform="translate(-3516.212 57.16)" fill="#343a3f"/>
                    <path id="Path_10088-3" data-name="Path 10088" d="M3637.424,12.036H3530.287c-.039-6.818,4.6-13.358,12.9-18.18,17.272-10.038,45.371-10.034,62.756,0L3599.6-9.8c-20.889-12.06-54.646-12.06-75.4,0-9.963,5.79-15.532,13.647-15.491,21.837h128.712" transform="translate(-3508.712 62.515)" fill="#343a3f"/>
                    <path id="Path_10089-3" data-name="Path 10089" d="M3641.164,12.935h-85.458c-.031-5.422,3.655-10.627,10.245-14.469,13.752-8.024,36.162-8.043,50.054-.054l-6.323-3.651c-17.386-10.037-45.484-10.04-62.756,0-8.3,4.822-12.936,11.363-12.9,18.18h107.137" transform="translate(-3512.453 61.617)" fill="#d9fbfb"/>
                    <path id="Path_10090-3" data-name="Path 10090" d="M3644.923,13.836,3619.762-.689c-13.892-7.989-36.305-7.97-50.054.054-6.59,3.842-10.275,9.047-10.245,14.469h85.459" transform="translate(-3516.211 60.715)" fill="#18bdba"/>
                    <path id="Path_10091-3" data-name="Path 10091" d="M3697.622,42.38l-6.34-3.66c17.386,10.037,17.471,26.313.2,36.35-8.292,4.819-19.569,7.527-31.338,7.527l.071,12.5c14.138,0,27.68-3.251,37.648-9.045,20.748-12.057,20.638-31.61-.24-43.67" transform="translate(-3531.088 54.008)" fill="#d9fbfb"/>
                    <path id="Path_10092-3" data-name="Path 10092" d="M3691.27,38.087l-.669-.387-1.2-.694-.256-.148-.516-.3-.262-.151-.816-.471-.843-.487-.865-.5-.9-.518c13.843,8.023,13.873,21,.065,29-6.612,3.83-15.581,5.978-24.942,5.978h0l.07,12.554c11.768,0,23.045-2.708,31.337-7.527,17.272-10.038,17.186-26.314-.2-36.35" transform="translate(-3531.076 54.642)" fill="#18bdba"/>
                    <path id="Path_10093-3" data-name="Path 10093" d="M3684.895,31.913l-.4-.229-.365-.211-.19-.11-.191-.11-.391-.227-.262-.151-.146-.085-.207-.119-.212-.123-.212-.123-.436-.251-.222-.129-.223-.129-.31-.179-.381-.22-.707-.408-.892-.516-.321-.185-7.28-4.2-.354-.2-.354-.2-.354-.2-2.025-1.169-.326-.188-8.4-4.848.279,49.5c9.361,0,18.33-2.148,24.942-5.978,13.806-7.991,13.777-20.973-.065-29" transform="translate(-3531.028 57.161)" fill="#343a3f"/>
                    <path id="Path_10094-3" data-name="Path 10094" d="M3650.539,17.391l-37.577,21.838c-20.748,12.057-20.643,31.607.241,43.67,10.034,5.8,23.616,9.044,37.75,9.044l-.07-12.5-.07-12.554h0l.069,12.554c-11.769,0-23.076-2.708-31.418-7.53-17.386-10.038-17.482-26.314-.2-36.348l31.277-18.177" transform="translate(-3521.827 57.16)" fill="#343a3f"/>
                    <path id="Path_10095-3" data-name="Path 10095" d="M3652.081,17.391,3620.8,35.568c-17.277,10.034-17.18,26.31.2,36.348,8.342,4.822,19.649,7.53,31.418,7.53l-.069-12.554h0c-9.366,0-18.36-2.152-25.02-5.984l-.051-.029c-13.841-7.991-13.935-20.954-.2-28.961l25-14.527" transform="translate(-3523.369 57.16)" fill="#d9fbfb"/>
                    <path id="Path_10096-3" data-name="Path 10096" d="M3653.63,17.391l-25,14.527c-13.736,8.007-13.642,20.965.2,28.961l.05.029c6.66,3.835,15.654,5.981,25.02,5.984h0l-.279-49.5" transform="translate(-3524.918 57.16)" fill="#18bdba"/>
                    <path id="Path_10097-3" data-name="Path 10097" d="M3778.132-9.8c-20.889-12.061-54.639-12.063-75.393,0h-.005l-6.293,3.657c17.272-10.038,45.366-10.038,62.751,0,8.352,4.822,13.059,11.359,13.1,18.177h21.574c-.04-8.19-5.7-16.044-15.731-21.833" transform="translate(-3536.451 62.514)" fill="#d9fbfb"/>
                    <path id="Path_10098-3" data-name="Path 10098" d="M3758.1-5.242c-17.385-10.038-45.479-10.038-62.751,0h0L3689.071-1.6c13.787-7.981,36.168-7.963,50.014.03l.041.024c6.627,3.845,10.366,9.047,10.4,14.473H3771.2c-.038-6.818-4.745-13.355-13.1-18.177" transform="translate(-3535.362 61.617)" fill="#18bdba"/>
                    <path id="Path_10099-3" data-name="Path 10099" d="M3734.751-.66c-13.846-7.993-36.226-8.011-50.014-.03h-.006L3659.74,13.833h85.454c-.037-5.425-3.775-10.627-10.4-14.473l-.041-.024" transform="translate(-3531.028 60.715)" fill="#343a3f"/>
                    <path id="Path_10100-3" data-name="Path 10100" d="M3788.44,17.391h-21.578c.038,6.818-4.594,13.355-12.893,18.177-17.271,10.038-45.371,10.034-62.756,0l-31.477-18.174,37.816,21.833c20.889,12.061,54.64,12.063,75.393,0,9.971-5.8,15.543-13.647,15.491-21.837" transform="translate(-3531.027 57.16)" fill="#343a3f"/>
                    <path id="Path_10101-3" data-name="Path 10101" d="M3766.861,17.391h-21.673c.03,5.429-3.65,10.631-10.24,14.473-13.758,8.02-36.168,8.046-50.06.051l-25.155-14.524,31.477,18.174c17.386,10.037,45.485,10.04,62.756,0,8.3-4.822,12.931-11.359,12.893-18.177" transform="translate(-3531.027 57.161)" fill="#d9fbfb"/>
                    <path id="Path_10102-3" data-name="Path 10102" d="M3745.194,17.391H3659.74l25.155,14.524c13.891,7.995,36.305,7.969,50.06-.051,6.589-3.842,10.269-9.044,10.24-14.473" transform="translate(-3531.028 57.16)" fill="#18bdba"/>
                    <path id="Path_10103-3" data-name="Path 10103" d="M3650.028-70.086c-14.133,0-27.675,3.255-37.642,9.041-20.754,12.061-20.644,31.618.246,43.674l6.339,3.66.664.384,1.2.695.256.147.517.3.26.151.817.471.844.487.865.5.9.519.4.229.365.211.19.11.191.11.4.229.256.147.148.085.206.119.212.122.212.123.436.256.223.129.222.129.31.179.381.22.708.409.892.511.321.186,7.281,4.2.359.207.354.2.349.2,2.029,1.172.322.185,8.4,4.85-8.4-4.85-.322-.185L3639.7-1.741l-.349-.2-.354-.2-.359-.207-7.281-4.2-.321-.186-.892-.511-.708-.409-.381-.22-.31-.179-.222-.129-.223-.129-.436-.256-.212-.123-.212-.122-.206-.119-.148-.085-.256-.147-.4-.229-.191-.11-.19-.11-.365-.211-.4-.229-.9-.519-.865-.5-.844-.487-.817-.471-.26-.151-.517-.3-.256-.147-1.2-.695-.664-.384c-17.39-10.04-17.482-26.313-.21-36.35,8.3-4.822,19.569-7.527,31.338-7.527l.072,12.557-.072-12.557-.071-12.5" transform="translate(-3521.741 70.086)" fill="#d9fbfb"/>
                    <path id="Path_10104-3" data-name="Path 10104" d="M3651.655-55.422c-11.77,0-23.04,2.7-31.338,7.527-17.272,10.038-17.18,26.31.21,36.35l.664.384,1.2.695.256.147.517.3.26.151.817.471.844.487.865.5.9.519.4.229.365.211.19.11.191.11.4.229.256.147.148.085.206.119.212.122.212.123.436.256.223.129.222.129.31.179.381.22.708.409.892.511.321.186,7.281,4.2.359.207.354.2.349.2,2.029,1.172.322.185,8.4,4.85-8.4-4.85-.322-.185L3641.258.426l-.349-.2-.354-.2-.359-.207-7.281-4.2-.321-.186-.892-.511-.708-.409-.381-.22-.31-.179-.222-.129-.223-.129-.436-.256-.212-.123L3629-6.653l-.206-.119-.148-.085L3628.389-7l-.4-.229-.191-.11-.19-.11-.365-.211-.4-.229c-13.843-8.024-13.872-21-.071-28.993,6.61-3.829,15.584-5.981,24.948-5.978l-.072-12.557" transform="translate(-3523.298 67.919)" fill="#18bdba"/>
                    <path id="Path_10105-3" data-name="Path 10105" d="M3653.291-40.688c-9.364,0-18.338,2.149-24.948,5.978-13.8,7.989-13.772,20.969.071,28.993l.4.229.365.211.19.11.191.11.4.229.256.147.148.085.206.119.212.122.212.123.436.256.223.129.222.129.31.179.381.22.707.409.892.511.321.186,7.281,4.2.359.207.354.2.349.2,2.029,1.172.321.185,8.4,4.85-.283-49.5" transform="translate(-3524.862 65.742)" fill="#343a3f"/>
                    <path id="Path_10106-3" data-name="Path 10106" d="M3696.989-61.042c-10.028-5.789-23.607-9.044-37.754-9.044l.072,12.5c11.768,0,23.075,2.708,31.422,7.527,17.39,10.04,17.476,26.316.2,36.354h.005l6.293-3.657c20.753-12.06,20.643-31.613-.246-43.674" transform="translate(-3530.954 70.086)" fill="#343a3f"/>
                    <path id="Path_10107-3" data-name="Path 10107" d="M3690.747-47.9c-8.347-4.819-19.654-7.527-31.423-7.527l.072,12.557.283,49.5-.279-49.5c9.366,0,18.365,2.149,25.02,5.978l.04.023c13.845,7.994,13.948,20.958.209,28.976h.006l6.276-3.647c17.271-10.038,17.185-26.314-.2-36.354" transform="translate(-3530.967 67.919)" fill="#d9fbfb"/>
                    <path id="Path_10108-3" data-name="Path 10108" d="M3684.473-34.688l-.04-.023c-6.655-3.829-15.654-5.981-25.02-5.978l.279,49.5,24.991-14.523c13.739-8.011,13.636-20.98-.209-28.976" transform="translate(-3530.98 65.742)" fill="#18bdba"/>
                  </g>
                </g>
              </g>
            </g>
          </g>
        </g>
      </g>
    </g>
  </g>
</svg>
