<svg xmlns="http://www.w3.org/2000/svg" xmlns:xlink="http://www.w3.org/1999/xlink" width="1920" height="1017" viewBox="0 0 1920 1017">
  <defs>
    <clipPath id="clip-path">
      <path id="Path_10297" data-name="Path 10297" d="M1920,0H0V1017H1920Z" fill="#fff"/>
    </clipPath>
    <clipPath id="clip-path-2">
      <path id="Path_10081" data-name="Path 10081" d="M4282.939,1509.705l-751.5-437.154L2775.03,1509.7l751.5,437.15Z" transform="translate(-2775.03 -1072.551)" fill="none"/>
    </clipPath>
    <clipPath id="clip-path-3">
      <path id="Path_10222" data-name="Path 10222" d="M3784.379,2.334,3634.08-85.1,3482.8,2.333l150.3,87.43Z" transform="translate(-3482.798 85.097)" fill="none"/>
    </clipPath>
  </defs>
  <g id="아트워크:_배경" data-name="아트워크: 배경" clip-path="url(#clip-path)">
    <g id="Group_10902" data-name="Group 10902" transform="translate(1023.71 -320.315)">
      <g id="Group_10837" data-name="Group 10837" transform="translate(0 982.231)">
        <g id="Group_10832" data-name="Group 10832">
          <g id="Group_10831" data-name="Group 10831">
            <g id="Group_10828" data-name="Group 10828" transform="translate(0)">
              <path id="Path_10082" data-name="Path 10082" d="M2760.429,1509.249l764.146,444.508,769.144-444.5-764.146-444.512Z" transform="translate(-2760.429 -1064.741)" fill="#18bdba"/>
            </g>
            <g id="Group_10829" data-name="Group 10829" transform="translate(0 443.723)">
              <path id="Path_10083" data-name="Path 10083" d="M3662.35,1584.886l.495,173.848,764.145,444.508-.49-173.848Z" transform="translate(-3662.35 -1584.886)" fill="#d9fbfb"/>
            </g>
            <g id="Group_10830" data-name="Group 10830" transform="translate(762.016 443.736)">
              <path id="Path_10084" data-name="Path 10084" d="M2762.345,2029.4l.49,173.848,769.151-444.495-.494-173.848Z" transform="translate(-2762.345 -1584.901)" fill="#343a3f"/>
            </g>
          </g>
        </g>
        <g id="Group_10836" data-name="Group 10836" transform="translate(12.937 6.662)">
          <g id="Group_10835" data-name="Group 10835">
            <g id="Group_10879" data-name="Group 10879">
              <g id="Group_10878" data-name="Group 10878" clip-path="url(#clip-path-2)">
                <g id="Group_10834" data-name="Group 10834" transform="translate(110.424 64.028)">
                  <g id="Group_10833" data-name="Group 10833">
                    <path id="Path_10085" data-name="Path 10085" d="M2904.6,1584.989h643.5c-.23,40.972-28.55,80.283-78.683,109.262-104.42,60.376-273.2,60.371-376.966,0l-28.767-16.733c86.592,48.624,225.05,48.135,311.032-1.583,41.734-24.121,65.32-56.84,65.511-90.96H2904.6" transform="translate(-2261.042 -1211.866)" fill="#d9fbfb"/>
                    <path id="Path_10086" data-name="Path 10086" d="M3031.175,1657.7c68.95,39.949,180.814,39.873,250.046-.137l.251-.145c33.164-19.233,51.863-45.268,51.986-72.422h108.417c-.192,34.123-23.776,66.838-65.511,90.959-85.982,49.717-224.441,50.221-311.032,1.582-.925-.52-1.837-1.041-2.749-1.57l-3.323-1.932-5.966-3.476-1.244-.725-2.557-1.494-1.278-.755-4.057-2.359-4.189-2.436-4.325-2.517-4.432-2.559" transform="translate(-2262.687 -1211.869)" fill="#18bdba"/>
                    <path id="Path_10087" data-name="Path 10087" d="M3158.4,1584.991h427.269c-.124,27.153-18.822,53.189-51.985,72.422l-.251.145c-69.231,40.009-181.1,40.095-250.046.136l-1.974-1.147-1.811-1.054-.946-.55h-.026l-.92-.533-1.973-1.152-1.279-.738-.732-.427-1.027-.6-1.051-.614-1.083-.631-2.16-1.258-1.083-.627-1.108-.644-1.568-.913-1.867-1.083-3.511-2.043-4.432-2.58-1.6-.93-36.165-21.037-1.781-1.036-1.76-1.024-1.73-1.007-10.082-5.86-1.594-.93L3158.39,1585" transform="translate(-2514.896 -1211.869)" fill="#343a3f"/>
                    <path id="Path_10088" data-name="Path 10088" d="M2904.6,1558.369h535.686c.192-34.123-23.01-66.856-64.489-90.989-86.361-50.238-226.857-50.221-313.781,0l31.694-18.316c104.446-60.359,273.228-60.359,376.991,0,49.813,28.979,77.66,68.3,77.456,109.291H2904.6" transform="translate(-2261.096 -1185.246)" fill="#343a3f"/>
                    <path id="Path_10089" data-name="Path 10089" d="M3031.173,1562.835h427.294c.154-27.136-18.275-53.189-51.224-72.418-68.762-40.159-180.81-40.252-250.268-.269l31.614-18.273c86.928-50.233,227.419-50.25,313.781,0,41.486,24.134,64.68,56.87,64.489,90.989H3031.173" transform="translate(-2387.671 -1189.713)" fill="#d9fbfb"/>
                    <path id="Path_10090" data-name="Path 10090" d="M3158.359,1567.317l125.8-72.7c69.458-39.984,181.527-39.89,250.268.268,32.948,19.228,51.377,45.281,51.224,72.418H3158.359" transform="translate(-2514.857 -1194.195)" fill="#18bdba"/>
                    <path id="Path_10091" data-name="Path 10091" d="M3740.406,1709.952l31.7-18.316c-86.928,50.233-87.354,131.694-1,181.931,41.461,24.121,97.845,37.671,156.692,37.671l-.354,62.547c-70.693,0-138.4-16.272-188.242-45.268-103.739-60.346-103.189-158.207,1.2-218.566" transform="translate(-3286.014 -1227.537)" fill="#d9fbfb"/>
                    <path id="Path_10092" data-name="Path 10092" d="M3726.831,1688.487l3.345-1.937,6.012-3.472,1.279-.742,2.582-1.494,1.308-.755,4.082-2.359,4.214-2.436,4.326-2.5,4.49-2.593c-69.214,40.154-69.363,105.125-.328,145.121,33.058,19.169,77.9,29.922,124.708,29.922h.021l-.349,62.833c-58.843,0-115.227-13.551-156.688-37.672-86.361-50.238-85.927-131.7,1-181.931" transform="translate(-3240.741 -1224.388)" fill="#18bdba"/>
                    <path id="Path_10093" data-name="Path 10093" d="M3711.747,1657.671l1.986-1.147,1.823-1.054.95-.55.955-.549,1.956-1.135,1.308-.755.733-.427,1.036-.6,1.061-.614,1.061-.614,2.177-1.258,1.112-.644,1.116-.644,1.551-.9,1.9-1.1,3.537-2.043,4.461-2.581,1.606-.926,36.4-21.037,1.768-1.024,1.768-1.024,1.768-1.019,10.125-5.852,1.632-.943,41.977-24.262-1.394,247.733c-46.8,0-91.649-10.753-124.708-29.922-69.031-40-68.886-104.967.328-145.121" transform="translate(-3194.017 -1211.866)" fill="#343a3f"/>
                    <path id="Path_10094" data-name="Path 10094" d="M3350.463,1584.991l187.884,109.3c103.739,60.342,103.215,158.19-1.205,218.566-50.167,29-118.077,45.264-188.75,45.264l.35-62.547.349-62.833h0l-.346,62.833c58.843,0,115.381-13.551,157.089-37.685,86.929-50.238,87.409-131.7,1.022-181.918l-156.385-90.976" transform="translate(-2706.96 -1211.868)" fill="#343a3f"/>
                    <path id="Path_10095" data-name="Path 10095" d="M3402.3,1584.99l156.385,90.976c86.387,50.221,85.9,131.681-1.023,181.918-41.708,24.134-98.246,37.685-157.089,37.685l.345-62.833h0c46.831,0,91.8-10.77,125.1-29.951l.251-.145c69.206-40,69.675-104.873,1-144.946l-124.985-72.708" transform="translate(-2758.802 -1211.868)" fill="#d9fbfb"/>
                    <path id="Path_10096" data-name="Path 10096" d="M3454.381,1584.991l124.986,72.707c68.677,40.073,68.208,104.929-1,144.946l-.251.145c-33.3,19.194-78.27,29.934-125.1,29.952H3453l1.393-247.733" transform="translate(-2810.879 -1211.869)" fill="#18bdba"/>
                    <path id="Path_10097" data-name="Path 10097" d="M3921.9,1449.1c104.446-60.364,273.2-60.376,376.966,0h.025l31.464,18.3c-86.361-50.239-226.831-50.239-313.755,0-41.759,24.133-65.294,56.853-65.486,90.972H3843.245c.2-40.99,28.516-80.3,78.657-109.275" transform="translate(-3843.245 -1185.25)" fill="#d9fbfb"/>
                    <path id="Path_10098" data-name="Path 10098" d="M3871.882,1471.862c86.928-50.238,227.394-50.238,313.755,0h.026l31.379,18.252c-68.937-39.945-180.84-39.856-250.067.149l-.2.119c-33.135,19.245-51.829,45.281-52.011,72.435H3806.4c.192-34.123,23.727-66.839,65.486-90.972" transform="translate(-3698.524 -1189.711)" fill="#18bdba"/>
                    <path id="Path_10099" data-name="Path 10099" d="M3711.957,1494.765c69.227-40.005,181.13-40.095,250.068-.149h.029l124.955,72.686H3659.74c.183-27.153,18.877-53.189,52.012-72.435l.2-.119" transform="translate(-3443.507 -1194.196)" fill="#343a3f"/>
                    <path id="Path_10100" data-name="Path 10100" d="M3659.714,1584.99h107.894c-.193,34.123,22.971,66.838,64.463,90.972,86.357,50.238,226.857,50.22,313.781,0L4303.239,1585l-189.082,109.274c-104.446,60.364-273.2,60.376-376.965,0-49.855-29-77.716-68.3-77.456-109.291" transform="translate(-3659.714 -1211.868)" fill="#343a3f"/>
                    <path id="Path_10101" data-name="Path 10101" d="M3659.715,1584.989h108.362c-.149,27.17,18.251,53.206,51.2,72.435,68.788,40.141,180.84,40.269,250.3.256l125.773-72.691-157.387,90.959c-86.929,50.233-227.424,50.25-313.781,0-41.492-24.133-64.655-56.853-64.463-90.972" transform="translate(-3551.821 -1211.866)" fill="#d9fbfb"/>
                    <path id="Path_10102" data-name="Path 10102" d="M3659.741,1584.991H4087.01l-125.773,72.691c-69.457,40.013-181.526,39.886-250.3-.256-32.947-19.228-51.347-45.264-51.2-72.435" transform="translate(-3443.508 -1211.869)" fill="#18bdba"/>
                    <path id="Path_10103" data-name="Path 10103" d="M3347.626,1147.606c70.667,0,138.374,16.29,188.212,45.251,103.768,60.364,103.219,158.246-1.228,218.584l-31.695,18.316-3.319,1.919-6.012,3.476-1.279.738-2.587,1.493-1.3.755-4.082,2.359-4.219,2.436-4.325,2.5-4.487,2.6-1.985,1.147-1.824,1.053-.95.55-.955.55-1.986,1.147-1.278.738-.737.426-1.031.6-1.061.61-1.061.614-2.177,1.28-1.116.644-1.112.644-1.551.9-1.9,1.1-3.537,2.047-4.461,2.559-1.606.93-36.4,21.037-1.794,1.037-1.769,1.024-1.743,1.007-10.146,5.865-1.606.926-42.007,24.274,42.007-24.274,1.606-.926,10.146-5.865,1.743-1.007,1.769-1.024,1.794-1.037,36.4-21.037,1.606-.93,4.461-2.559,3.537-2.047,1.9-1.1,1.551-.9,1.112-.644,1.116-.644,2.177-1.28,1.061-.614,1.061-.61,1.031-.6.737-.426,1.278-.738,1.986-1.147.955-.55.95-.55,1.824-1.053,1.985-1.147,4.487-2.6,4.325-2.5,4.219-2.436,4.082-2.359,1.3-.755,2.587-1.493,1.279-.738,6.012-3.476,3.319-1.919c86.95-50.25,87.41-131.694,1.048-181.931-41.491-24.134-97.845-37.672-156.692-37.672l-.358,62.846.358-62.846.354-62.548" transform="translate(-2701.998 -1147.606)" fill="#d9fbfb"/>
                    <path id="Path_10104" data-name="Path 10104" d="M3399.926,1220.926c58.848,0,115.2,13.538,156.692,37.672,86.361,50.238,85.9,131.681-1.048,181.931l-3.319,1.919-6.012,3.476-1.279.738-2.587,1.493-1.3.755-4.082,2.359-4.219,2.436-4.325,2.5-4.487,2.6-1.985,1.147-1.824,1.054-.95.55-.955.55-1.986,1.147-1.278.738-.737.426-1.031.6-1.061.61-1.061.614-2.177,1.28-1.116.644-1.112.644-1.551.9-1.9,1.1-3.537,2.047-4.461,2.559-1.606.93-36.4,21.037-1.794,1.036-1.769,1.024-1.743,1.007-10.146,5.865-1.606.926-42.007,24.274,42.007-24.274,1.606-.926,10.146-5.865,1.743-1.007,1.769-1.024,1.794-1.036,36.4-21.037,1.606-.93,4.461-2.559,3.537-2.047,1.9-1.1,1.551-.9,1.112-.644,1.116-.644,2.177-1.28,1.061-.614,1.061-.61,1.031-.6.737-.426,1.278-.738,1.986-1.147.955-.55.95-.55,1.824-1.054,1.985-1.147c69.215-40.158,69.359-105.125.354-145.108-33.049-19.164-77.92-29.934-124.742-29.922l.358-62.846" transform="translate(-2754.651 -1158.379)" fill="#18bdba"/>
                    <path id="Path_10105" data-name="Path 10105" d="M3452.511,1294.6c46.823,0,91.692,10.757,124.743,29.922,69.006,39.984,68.861,104.95-.354,145.108l-1.986,1.147-1.824,1.054-.95.55-.955.55-1.986,1.147-1.278.738-.737.426-1.031.6-1.061.61-1.061.614-2.177,1.28-1.116.644-1.112.644-1.551.9-1.9,1.1-3.537,2.047-4.46,2.559-1.606.93-36.4,21.037-1.794,1.036-1.769,1.024-1.743,1.007-10.146,5.865-1.606.926-42.008,24.274,1.416-247.729" transform="translate(-2807.594 -1169.203)" fill="#343a3f"/>
                    <path id="Path_10106" data-name="Path 10106" d="M3735.889,1192.87c50.142-28.975,118.035-45.264,188.771-45.264l-.358,62.548c-58.839,0-115.376,13.551-157.11,37.672-86.949,50.25-87.38,131.711-1.022,181.948h-.025l-31.465-18.3c-103.763-60.359-103.214-158.22,1.232-218.583" transform="translate(-3279.006 -1147.606)" fill="#343a3f"/>
                    <path id="Path_10107" data-name="Path 10107" d="M3723.162,1258.6c41.734-24.121,98.272-37.672,157.114-37.672l-.358,62.846L3878.5,1531.5l1.393-247.733c-46.83,0-91.828,10.757-125.1,29.922l-.2.115c-69.227,40.009-69.742,104.894-1.048,145.023h-.029l-31.379-18.252c-86.357-50.238-85.927-131.7,1.022-181.948" transform="translate(-3235.001 -1158.379)" fill="#d9fbfb"/>
                    <path id="Path_10108" data-name="Path 10108" d="M3710.351,1324.628l.2-.115c33.271-19.165,78.27-29.934,125.1-29.922l-1.393,247.734L3709.3,1469.637c-68.694-40.094-68.179-105,1.048-145.023" transform="translate(-3190.755 -1169.202)" fill="#18bdba"/>
                  </g>
                </g>
              </g>
            </g>
          </g>
        </g>
      </g>
      <g id="Group_10883" data-name="Group 10883" transform="translate(102.249 818.526)">
        <g id="Group_10880" data-name="Group 10880">
          <path id="Path_10082-2" data-name="Path 10082" d="M2880.337,1258.081l662.259,385.24,666.591-385.236L3546.929,872.841Z" transform="translate(-2880.337 -872.841)" fill="#18bdba"/>
          <path id="Path_10083-2" data-name="Path 10083" d="M3662,1323.633l.428,150.669,662.259,385.24-.425-150.669Z" transform="translate(-3662.001 -939.073)" fill="#d9fbfb"/>
          <path id="Path_10084-2" data-name="Path 10084" d="M2882,1708.875l.425,150.669,666.6-385.229-.428-150.669Z" transform="translate(-2221.584 -939.075)" fill="#343a3f"/>
        </g>
        <g id="Group_10882" data-name="Group 10882" transform="translate(11.213 5.774)">
          <path id="Path_10085-2" data-name="Path 10085" d="M4199.845,1258.477l-651.3-378.867-655.556,378.863,651.3,378.864Z" transform="translate(-2892.991 -879.609)" fill="none"/>
          <g id="Group_10881" data-name="Group 10881" transform="translate(95.701 55.49)">
            <path id="Path_10086-2" data-name="Path 10086" d="M3005.285,1323.722h557.7c-.2,35.51-24.743,69.578-68.191,94.694-90.5,52.326-236.775,52.322-326.7,0l-24.933-14.5c75.046,42.142,195.044,41.717,269.562-1.372,36.168-20.9,56.61-49.262,56.777-78.831H3005.285" transform="translate(-2447.535 -1000.349)" fill="#d9fbfb"/>
            <path id="Path_10087-2" data-name="Path 10087" d="M3114.983,1386.738c59.757,34.623,156.707,34.557,216.708-.119l.217-.125c28.743-16.668,44.948-39.233,45.055-62.766h93.962c-.167,29.574-20.607,57.927-56.777,78.832-74.518,43.088-194.515,43.524-269.562,1.371-.8-.451-1.591-.9-2.382-1.36l-2.88-1.675-5.171-3.013-1.078-.629-2.216-1.293-1.108-.654-3.515-2.045-3.631-2.11-3.749-2.181-3.84-2.218" transform="translate(-2448.961 -1000.352)" fill="#18bdba"/>
            <path id="Path_10088-2" data-name="Path 10088" d="M3225.243,1323.724h370.3c-.107,23.533-16.312,46.1-45.055,62.766l-.217.125c-60,34.675-156.954,34.748-216.708.119l-1.71-.995-1.57-.913-.82-.477h-.022l-.8-.462-1.71-1-1.108-.64-.636-.369-.89-.518-.912-.532-.938-.547-1.872-1.091-.938-.543-.96-.558-1.359-.791-1.617-.939-3.043-1.771-3.841-2.236-1.385-.806-31.343-18.232-1.544-.9-1.525-.887-1.5-.873-8.738-5.079-1.382-.805-36.169-21.041" transform="translate(-2667.541 -1000.351)" fill="#343a3f"/>
            <path id="Path_10089-2" data-name="Path 10089" d="M3005.284,1300.652h464.262c.166-29.574-19.942-57.942-55.891-78.858-74.847-43.539-196.609-43.524-271.944,0l27.469-15.873c90.52-52.312,236.8-52.312,326.725,0,43.171,25.115,67.306,59.195,67.128,94.72h-557.75" transform="translate(-2447.582 -977.279)" fill="#343a3f"/>
            <path id="Path_10090-2" data-name="Path 10090" d="M3114.983,1304.523h370.323c.133-23.518-15.84-46.1-44.394-62.762-59.594-34.8-156.7-34.886-216.9-.233l27.4-15.837c75.338-43.536,197.1-43.55,271.943,0,35.955,20.916,56.057,49.287,55.89,78.857H3114.983" transform="translate(-2557.281 -981.15)" fill="#d9fbfb"/>
            <path id="Path_10091-2" data-name="Path 10091" d="M3225.209,1308.407l109.029-63.006c60.2-34.653,157.323-34.572,216.9.233,28.554,16.664,44.527,39.243,44.394,62.762H3225.209" transform="translate(-2667.507 -985.034)" fill="#18bdba"/>
            <path id="Path_10092-2" data-name="Path 10092" d="M3729.65,1432.023l27.472-15.873c-75.338,43.535-75.707,114.134-.864,157.673,35.934,20.9,84.8,32.649,135.8,32.649l-.307,54.208c-61.267,0-119.945-14.1-163.144-39.232-89.906-52.3-89.429-137.113,1.042-189.425" transform="translate(-3335.844 -1013.931)" fill="#d9fbfb"/>
            <path id="Path_10093-2" data-name="Path 10093" d="M3717.885,1413.421l2.9-1.679,5.211-3.009,1.108-.643,2.238-1.294,1.134-.654,3.538-2.044,3.653-2.111,3.748-2.166,3.893-2.248c-59.986,34.8-60.115,91.108-.285,125.772,28.651,16.612,67.516,25.932,108.08,25.932h.019l-.3,54.455c-51,0-99.862-11.744-135.8-32.649-74.846-43.539-74.469-114.138.864-157.673" transform="translate(-3296.608 -1011.201)" fill="#18bdba"/>
            <path id="Path_10094-2" data-name="Path 10094" d="M3704.813,1386.713l1.721-.995,1.58-.913.824-.477.827-.477,1.7-.984,1.134-.654.635-.369.9-.518.92-.532.92-.532,1.887-1.09.964-.559.967-.558,1.344-.776,1.651-.954,3.065-1.771,3.867-2.236,1.392-.8,31.545-18.232,1.533-.887,1.532-.887,1.533-.883,8.775-5.072,1.415-.817,36.379-21.026-1.208,214.7c-40.564,0-79.429-9.32-108.08-25.933-59.827-34.664-59.7-90.971.285-125.771" transform="translate(-3256.114 -1000.349)" fill="#343a3f"/>
            <path id="Path_10095-2" data-name="Path 10095" d="M3391.7,1323.724l162.833,94.723c89.907,52.3,89.453,137.1-1.045,189.425-43.479,25.137-102.334,39.229-163.583,39.229l.3-54.208.3-54.455h0l-.3,54.455c51,0,100-11.744,136.143-32.66,75.339-43.539,75.755-114.138.886-157.662l-135.534-78.846" transform="translate(-2833.997 -1000.351)" fill="#343a3f"/>
            <path id="Path_10096-2" data-name="Path 10096" d="M3436.629,1323.724l135.534,78.846c74.869,43.524,74.448,114.123-.886,157.662-36.146,20.916-85.146,32.66-136.143,32.66l.3-54.455h0c40.587,0,79.559-9.334,108.421-25.958l.217-.125c59.979-34.664,60.385-90.89.864-125.62l-108.32-63.013" transform="translate(-2878.927 -1000.351)" fill="#d9fbfb"/>
            <path id="Path_10097-2" data-name="Path 10097" d="M3481.762,1323.724l108.32,63.013c59.521,34.73,59.115,90.938-.864,125.62l-.217.126c-28.861,16.635-67.834,25.943-108.42,25.957h-.019l1.208-214.7" transform="translate(-2924.06 -1000.351)" fill="#18bdba"/>
            <path id="Path_10098-2" data-name="Path 10098" d="M3886.947,1205.95c90.519-52.315,236.771-52.326,326.7,0h.022l27.269,15.863c-74.846-43.539-196.587-43.539-271.921,0-36.192,20.916-56.588,49.273-56.754,78.842h-93.489c.174-35.525,24.714-69.593,68.169-94.705" transform="translate(-3818.778 -977.282)" fill="#d9fbfb"/>
            <path id="Path_10099-2" data-name="Path 10099" d="M3843.6,1225.679c75.338-43.539,197.075-43.539,271.921,0h.022l27.2,15.818c-59.746-34.619-156.728-34.542-216.726.13l-.177.1c-28.717,16.679-44.918,39.244-45.077,62.777h-93.914c.167-29.574,20.563-57.927,56.754-78.843" transform="translate(-3693.354 -981.148)" fill="#18bdba"/>
            <path id="Path_10100-2" data-name="Path 10100" d="M3704.994,1245.528c60-34.671,156.979-34.748,216.726-.13h.025l108.294,63h-370.3c.158-23.533,16.36-46.1,45.077-62.777l.177-.1" transform="translate(-3472.337 -985.035)" fill="#343a3f"/>
            <path id="Path_10101-2" data-name="Path 10101" d="M3659.718,1323.724h93.508c-.166,29.574,19.909,57.926,55.868,78.842,74.843,43.539,196.609,43.525,271.943,0l136.4-78.831-163.871,94.705c-90.52,52.315-236.774,52.326-326.7,0-43.208-25.138-67.353-59.195-67.128-94.72" transform="translate(-3659.718 -1000.351)" fill="#343a3f"/>
            <path id="Path_10102-2" data-name="Path 10102" d="M3659.719,1323.722h93.914c-.129,23.547,15.818,46.112,44.372,62.777,59.616,34.789,156.728,34.9,216.925.222l109-63-136.4,78.831c-75.338,43.536-197.1,43.55-271.943,0-35.959-20.916-56.034-49.273-55.868-78.842" transform="translate(-3566.211 -1000.349)" fill="#d9fbfb"/>
            <path id="Path_10103-2" data-name="Path 10103" d="M3659.741,1323.724h370.3l-109,63c-60.2,34.678-157.323,34.568-216.925-.222-28.555-16.665-44.5-39.229-44.372-62.777" transform="translate(-3472.338 -1000.351)" fill="#18bdba"/>
            <path id="Path_10104-2" data-name="Path 10104" d="M3389.242,944.657c61.245,0,119.923,14.118,163.116,39.218,89.933,52.316,89.457,137.146-1.063,189.439l-27.469,15.874-2.877,1.663-5.21,3.012-1.108.64-2.242,1.294-1.13.654-3.537,2.044-3.656,2.111-3.749,2.166-3.888,2.251-1.722.995-1.58.913-.824.477-.827.477-1.721.995-1.109.639-.638.37-.894.518-.919.528-.919.532-1.887,1.109-.967.559-.964.558-1.344.776-1.652.954-3.065,1.774-3.866,2.218-1.393.806-31.549,18.232-1.554.9-1.533.887-1.511.872-8.792,5.083-1.393.8-36.406,21.038L3423.8,1247l1.393-.8,8.792-5.083,1.511-.872,1.533-.887,1.554-.9,31.549-18.232,1.393-.806,3.866-2.218,3.065-1.774,1.652-.954,1.344-.776.964-.558.967-.559,1.887-1.109.919-.532.919-.528.894-.518.638-.37,1.109-.639,1.721-.995.827-.477.824-.477,1.58-.913,1.722-.995,3.888-2.251,3.749-2.166,3.656-2.111,3.537-2.044,1.13-.654,2.242-1.294,1.108-.64,5.21-3.012,2.877-1.663c75.356-43.55,75.755-114.135.908-157.674-35.959-20.916-84.8-32.649-135.8-32.649l-.31,54.467.31-54.467.307-54.208" transform="translate(-2829.697 -944.657)" fill="#d9fbfb"/>
            <path id="Path_10105-2" data-name="Path 10105" d="M3434.568,1008.2c51,0,99.841,11.733,135.8,32.649,74.847,43.539,74.448,114.123-.908,157.674l-2.877,1.663-5.21,3.012-1.108.64-2.242,1.294-1.13.654-3.537,2.044-3.656,2.111-3.749,2.166-3.888,2.251-1.722.995-1.58.913-.824.477-.827.477-1.721.995-1.109.639-.638.37-.894.517-.919.529-.919.532-1.887,1.109-.967.558-.964.559-1.344.776-1.652.954-3.065,1.774-3.866,2.218-1.393.805-31.549,18.232-1.554.9-1.533.886-1.511.873-8.792,5.083-1.393.8-36.406,21.038,36.406-21.038,1.393-.8,8.792-5.083,1.511-.873,1.533-.886,1.554-.9,31.549-18.232,1.393-.805,3.866-2.218,3.065-1.774,1.652-.954,1.344-.776.964-.559.967-.558,1.887-1.109.919-.532.919-.529.894-.517.638-.37,1.109-.639,1.721-.995.827-.477.824-.477,1.58-.913,1.722-.995c59.985-34.8,60.111-91.108.306-125.76-28.643-16.609-67.531-25.943-108.11-25.932l.31-54.467" transform="translate(-2875.33 -953.993)" fill="#18bdba"/>
            <path id="Path_10106-2" data-name="Path 10106" d="M3480.142,1072.048c40.579,0,79.466,9.323,108.11,25.933,59.8,34.652,59.68,90.957-.306,125.76l-1.721.994-1.58.914-.824.477-.827.477-1.721.995-1.108.639-.639.37-.893.517-.92.529-.92.532-1.887,1.109-.967.558-.964.559-1.344.776-1.652.954-3.065,1.774-3.867,2.218-1.392.805-31.55,18.232-1.555.9-1.533.887-1.51.873-8.793,5.083-1.393.8-36.406,21.038,1.226-214.7" transform="translate(-2921.214 -963.374)" fill="#343a3f"/>
            <path id="Path_10107-2" data-name="Path 10107" d="M3725.735,983.886c43.456-25.111,102.3-39.229,163.6-39.229l-.31,54.208c-50.993,0-99.993,11.744-136.162,32.649-75.356,43.55-75.729,114.149-.886,157.688h-.022l-27.27-15.862c-89.928-52.311-89.452-137.124,1.067-189.439" transform="translate(-3329.769 -944.657)" fill="#343a3f"/>
            <path id="Path_10108-2" data-name="Path 10108" d="M3714.706,1040.85c36.169-20.9,85.168-32.649,136.165-32.649l-.31,54.466-1.227,214.7,1.208-214.7c-40.586,0-79.584,9.323-108.42,25.933l-.173.1c-60,34.674-60.444,90.908-.909,125.686h-.025l-27.2-15.818c-74.842-43.539-74.47-114.138.887-157.688" transform="translate(-3291.633 -953.993)" fill="#d9fbfb"/>
            <path id="Path_10109" data-name="Path 10109" d="M3703.6,1098.076l.173-.1c28.835-16.608,67.834-25.943,108.42-25.932l-1.208,214.7L3702.7,1223.752c-59.535-34.749-59.089-91,.909-125.687" transform="translate(-3253.287 -963.373)" fill="#18bdba"/>
          </g>
        </g>
      </g>
      <g id="Group_10887" data-name="Group 10887" transform="translate(204.497 654.821)">
        <g id="Group_10884" data-name="Group 10884">
          <path id="Path_10110" data-name="Path 10110" d="M3000.246,1006.913l560.374,325.973,564.039-325.969L3564.285,680.941Z" transform="translate(-3000.245 -680.941)" fill="#18bdba"/>
          <path id="Path_10111" data-name="Path 10111" d="M3661.653,1062.38l.363,127.489,560.374,325.972-.359-127.489Z" transform="translate(-3661.653 -736.984)" fill="#d9fbfb"/>
          <path id="Path_10112" data-name="Path 10112" d="M3001.65,1388.354l.359,127.489,564.045-325.963-.362-127.489Z" transform="translate(-2442.839 -736.985)" fill="#343a3f"/>
        </g>
        <g id="Group_10886" data-name="Group 10886" transform="translate(9.488 4.886)">
          <path id="Path_10113" data-name="Path 10113" d="M4116.753,1007.248l-551.1-320.58-554.7,320.577,551.1,320.577Z" transform="translate(-3010.953 -686.668)" fill="none"/>
          <g id="Group_10885" data-name="Group 10885" transform="translate(80.978 46.953)">
            <path id="Path_10114" data-name="Path 10114" d="M3105.971,1062.456h471.9c-.168,30.047-20.936,58.874-57.7,80.126-76.575,44.275-200.348,44.273-276.442,0l-21.1-12.272c63.5,35.659,165.037,35.3,228.091-1.16,30.6-17.688,47.9-41.683,48.042-66.7h-392.8" transform="translate(-2634.028 -788.832)" fill="#d9fbfb"/>
            <path id="Path_10115" data-name="Path 10115" d="M3198.792,1115.777c50.564,29.3,132.6,29.24,183.368-.1l.184-.107c24.32-14.1,38.033-33.2,38.123-53.109h79.506c-.141,25.023-17.437,49.015-48.042,66.7-63.053,36.459-164.591,36.828-228.091,1.16-.677-.381-1.347-.763-2.016-1.151l-2.437-1.417-4.375-2.55-.913-.532-1.875-1.094-.937-.554-2.975-1.73-3.071-1.786-3.172-1.845-3.25-1.877" transform="translate(-2635.235 -788.834)" fill="#18bdba"/>
            <path id="Path_10116" data-name="Path 10116" d="M3292.089,1062.457H3605.42c-.091,19.912-13.8,39.006-38.123,53.11l-.184.106c-50.77,29.341-132.808,29.4-183.368.1l-1.446-.842-1.329-.772-.694-.4h-.019l-.675-.391-1.446-.845-.938-.541-.537-.313-.753-.438-.771-.451-.794-.463-1.584-.922-.794-.46-.812-.472-1.151-.67-1.369-.794-2.574-1.5-3.25-1.893-1.172-.682-26.521-15.427-1.306-.76-1.291-.751-1.269-.738-7.393-4.3-1.169-.682-30.6-17.8" transform="translate(-2820.188 -788.834)" fill="#343a3f"/>
            <path id="Path_10117" data-name="Path 10117" d="M3105.97,1042.934h392.837c.141-25.023-16.874-49.027-47.291-66.725-63.332-36.841-166.363-36.828-230.106,0l23.243-13.432c76.594-44.264,200.367-44.264,276.459,0,36.53,21.252,56.951,50.088,56.8,80.147H3105.97" transform="translate(-2634.068 -769.311)" fill="#343a3f"/>
            <path id="Path_10118" data-name="Path 10118" d="M3198.791,1046.21h313.349c.113-19.9-13.4-39.005-37.564-53.106-50.426-29.45-132.594-29.519-183.53-.2l23.184-13.4c63.747-36.838,166.774-36.85,230.105,0,30.424,17.7,47.432,41.7,47.292,66.725H3198.791" transform="translate(-2726.89 -772.587)" fill="#d9fbfb"/>
            <path id="Path_10119" data-name="Path 10119" d="M3292.06,1049.5l92.255-53.312c50.936-29.322,133.119-29.253,183.53.2,24.162,14.1,37.677,33.206,37.564,53.106H3292.06" transform="translate(-2820.159 -775.873)" fill="#18bdba"/>
            <path id="Path_10120" data-name="Path 10120" d="M3718.9,1154.095l23.246-13.431c-63.747,36.837-64.06,96.575-.731,133.416,30.4,17.688,71.753,27.626,114.907,27.626l-.259,45.868c-51.842,0-101.493-11.933-138.044-33.2-76.075-44.254-75.672-116.019.881-160.283" transform="translate(-3385.675 -800.325)" fill="#d9fbfb"/>
            <path id="Path_10121" data-name="Path 10121" d="M3708.94,1138.355l2.453-1.42,4.41-2.547.937-.544,1.894-1.095.96-.554,2.993-1.73,3.091-1.786,3.171-1.833,3.294-1.9c-50.758,29.447-50.866,77.091-.24,106.422,24.243,14.057,57.128,21.942,91.452,21.942h.016l-.257,46.078c-43.151,0-84.5-9.937-114.9-27.626-63.332-36.841-63.014-96.578.731-133.416" transform="translate(-3352.474 -798.015)" fill="#18bdba"/>
            <path id="Path_10122" data-name="Path 10122" d="M3697.878,1115.756l1.456-.841,1.338-.773.7-.4.7-.4,1.434-.832.959-.554.538-.313.759-.438.778-.45.778-.451,1.6-.923.815-.473.818-.472,1.138-.657,1.4-.807,2.594-1.5,3.271-1.893,1.179-.679,26.692-15.427,1.3-.751,1.3-.751,1.3-.747,7.425-4.292,1.2-.691,30.783-17.792-1.022,181.671c-34.324,0-67.21-7.886-91.452-21.943-50.623-29.331-50.517-76.975.24-106.422" transform="translate(-3318.21 -788.832)" fill="#343a3f"/>
            <path id="Path_10123" data-name="Path 10123" d="M3432.936,1062.457l137.782,80.151c76.075,44.251,75.691,116.006-.884,160.282-36.789,21.271-86.591,33.194-138.417,33.194l.257-45.868.257-46.078h0l-.253,46.078c43.151,0,84.612-9.938,115.2-27.635,63.747-36.841,64.1-96.578.75-133.406l-114.682-66.716" transform="translate(-2961.035 -788.834)" fill="#343a3f"/>
            <path id="Path_10124" data-name="Path 10124" d="M3470.954,1062.457l114.683,66.717c63.35,36.828,62.994,96.566-.75,133.406-30.586,17.7-72.047,27.635-115.2,27.635l.253-46.077h0c34.343,0,67.319-7.9,91.74-21.965l.185-.106c50.751-29.331,51.094-76.907.731-106.294l-91.656-53.319" transform="translate(-2999.052 -788.833)" fill="#d9fbfb"/>
            <path id="Path_10125" data-name="Path 10125" d="M3509.143,1062.457l91.655,53.319c50.364,29.387,50.021,76.947-.731,106.294l-.184.107c-24.421,14.076-57.4,21.951-91.74,21.964h-.015l1.021-181.671" transform="translate(-3037.241 -788.834)" fill="#18bdba"/>
            <path id="Path_10126" data-name="Path 10126" d="M3851.991,962.8c76.594-44.267,200.345-44.276,276.441,0h.019l23.075,13.422c-63.332-36.841-166.343-36.841-230.088,0-30.624,17.7-47.882,41.692-48.023,66.712H3794.31c.146-30.059,20.912-58.886,57.681-80.135" transform="translate(-3794.31 -769.314)" fill="#d9fbfb"/>
            <path id="Path_10127" data-name="Path 10127" d="M3815.31,979.5c63.748-36.841,166.756-36.841,230.088,0h.019l23.011,13.384c-50.554-29.293-132.616-29.227-183.383.11l-.15.088c-24.3,14.113-38.008,33.206-38.143,53.118h-79.465c.141-25.023,17.4-49.015,48.023-66.713" transform="translate(-3688.182 -772.585)" fill="#18bdba"/>
            <path id="Path_10128" data-name="Path 10128" d="M3698.032,996.291c50.767-29.336,132.829-29.4,183.384-.109h.021l91.633,53.3H3659.74c.134-19.913,13.843-39.005,38.142-53.118l.15-.088" transform="translate(-3501.168 -775.874)" fill="#343a3f"/>
            <path id="Path_10129" data-name="Path 10129" d="M3659.721,1062.457h79.122c-.141,25.024,16.846,49.015,47.273,66.713,63.329,36.841,166.362,36.828,230.106,0l115.417-66.7-138.66,80.135c-76.594,44.266-200.348,44.275-276.442,0-36.56-21.271-56.991-50.089-56.8-80.147" transform="translate(-3659.721 -788.833)" fill="#343a3f"/>
            <path id="Path_10130" data-name="Path 10130" d="M3659.722,1062.456h79.465c-.109,19.925,13.384,39.018,37.545,53.119,50.445,29.437,132.616,29.531,183.552.188l92.233-53.307-115.417,66.7c-63.748,36.838-166.778,36.85-230.106,0-30.427-17.7-47.413-41.692-47.273-66.713" transform="translate(-3580.6 -788.832)" fill="#d9fbfb"/>
            <path id="Path_10131" data-name="Path 10131" d="M3659.74,1062.457h313.33l-92.233,53.307c-50.936,29.343-133.119,29.249-183.552-.188-24.161-14.1-37.655-33.194-37.545-53.119" transform="translate(-3501.169 -788.834)" fill="#18bdba"/>
            <path id="Path_10132" data-name="Path 10132" d="M3430.856,741.708c51.823,0,101.474,11.946,138.022,33.185,76.1,44.267,75.694,116.046-.9,160.295l-23.243,13.432-2.434,1.408-4.409,2.549-.937.542-1.9,1.094-.956.554-2.994,1.73-3.094,1.786-3.171,1.833-3.291,1.9-1.457.841-1.337.773-.7.4-.7.4-1.457.841-.937.542-.54.313-.756.438-.778.447-.778.45-1.6.938-.818.473-.816.473-1.138.657-1.4.807-2.594,1.5-3.271,1.877-1.179.682-26.7,15.427-1.316.76-1.3.751-1.278.738-7.44,4.3-1.179.679-30.8,17.8,30.8-17.8,1.179-.679,7.44-4.3,1.278-.738,1.3-.751,1.316-.76,26.7-15.427,1.179-.682,3.271-1.877,2.594-1.5,1.4-.807,1.138-.657.816-.473.818-.473,1.6-.938.778-.45.778-.447.756-.438.54-.313.938-.542,1.457-.841.7-.4.7-.4,1.337-.773,1.457-.841,3.291-1.9,3.171-1.833,3.094-1.786,2.994-1.73.956-.554,1.9-1.094.938-.542,4.409-2.549,2.434-1.408c63.763-36.85,64.1-96.576.769-133.416-30.427-17.7-71.753-27.626-114.907-27.626l-.262,46.087.262-46.087.259-45.868" transform="translate(-2957.395 -741.708)" fill="#d9fbfb"/>
            <path id="Path_10133" data-name="Path 10133" d="M3469.21,795.476c43.155,0,84.481,9.928,114.907,27.626,63.331,36.841,62.995,96.566-.769,133.417l-2.434,1.408-4.409,2.549-.937.541-1.9,1.1-.956.554-2.994,1.73-3.094,1.786-3.171,1.833-3.291,1.9-1.457.841-1.337.773-.7.4-.7.4-1.457.841-.937.542-.54.312-.756.438-.778.447-.778.45-1.6.938-.818.473-.816.472-1.138.657-1.4.807-2.594,1.5L3539.1,982.1l-1.179.682-26.7,15.427-1.316.76-1.3.751-1.278.738-7.44,4.3-1.179.678-30.8,17.8,30.8-17.8,1.179-.678,7.44-4.3,1.278-.738,1.3-.751,1.316-.76,26.7-15.427,1.179-.682,3.271-1.877,2.594-1.5,1.4-.807,1.138-.657.816-.472.818-.473,1.6-.938.778-.45.778-.447.756-.438.54-.312.938-.542,1.457-.841.7-.4.7-.4,1.337-.773,1.457-.841c50.757-29.45,50.863-77.092.259-106.413-24.237-14.054-57.141-21.952-91.477-21.943l.262-46.087" transform="translate(-2996.009 -749.608)" fill="#18bdba"/>
            <path id="Path_10134" data-name="Path 10134" d="M3507.773,849.5c34.335,0,67.24,7.888,91.477,21.943,50.6,29.321,50.5,76.963-.259,106.413l-1.457.841-1.337.773-.7.4-.7.4-1.456.841-.937.542-.541.312-.756.438-.778.447-.778.451-1.6.938-.819.473-.816.472-1.137.657-1.4.807-2.595,1.5-3.271,1.877-1.179.682-26.7,15.427-1.316.76-1.3.751-1.278.738-7.441,4.3-1.178.678-30.805,17.8,1.038-181.668" transform="translate(-3034.833 -757.546)" fill="#343a3f"/>
            <path id="Path_10135" data-name="Path 10135" d="M3715.582,774.9c36.771-21.248,86.559-33.194,138.432-33.194l-.263,45.868c-43.148,0-84.609,9.938-115.214,27.626-63.763,36.85-64.079,96.588-.75,133.429h-.019l-23.074-13.421c-76.093-44.264-75.69-116.028.9-160.295" transform="translate(-3380.534 -741.708)" fill="#343a3f"/>
            <path id="Path_10136" data-name="Path 10136" d="M3706.25,823.1c30.6-17.689,72.066-27.626,115.217-27.626l-.262,46.087-1.038,181.668,1.022-181.67c-34.342,0-67.34,7.888-91.74,21.942l-.146.084c-50.767,29.341-51.145,76.923-.769,106.35h-.021L3705.5,956.553c-63.329-36.841-63.012-96.578.75-133.429" transform="translate(-3348.265 -749.608)" fill="#d9fbfb"/>
            <path id="Path_10137" data-name="Path 10137" d="M3696.855,871.524l.146-.084c24.4-14.053,57.4-21.952,91.74-21.943l-1.022,181.671-91.633-53.3c-50.376-29.4-50-77,.769-106.35" transform="translate(-3315.818 -757.545)" fill="#18bdba"/>
          </g>
        </g>
      </g>
      <g id="Group_10891" data-name="Group 10891" transform="translate(306.746 491.115)">
        <g id="Group_10888" data-name="Group 10888">
          <path id="Path_10138" data-name="Path 10138" d="M3120.153,755.746l458.487,266.7,461.486-266.7L3581.64,489.041Z" transform="translate(-3120.153 -489.041)" fill="#18bdba"/>
          <path id="Path_10139" data-name="Path 10139" d="M3661.306,801.128l.3,104.309,458.487,266.7-.294-104.309Z" transform="translate(-3661.306 -534.894)" fill="#d9fbfb"/>
          <path id="Path_10140" data-name="Path 10140" d="M3121.3,1067.834l.294,104.309,461.491-266.7-.3-104.309Z" transform="translate(-2664.094 -534.895)" fill="#343a3f"/>
        </g>
        <g id="Group_10890" data-name="Group 10890" transform="translate(7.762 3.998)">
          <path id="Path_10141" data-name="Path 10141" d="M4033.659,756.019l-450.9-262.293-453.846,262.29,450.9,262.29Z" transform="translate(-3128.913 -493.727)" fill="none"/>
          <g id="Group_10889" data-name="Group 10889" transform="translate(66.254 38.417)">
            <path id="Path_10142" data-name="Path 10142" d="M3206.656,801.19h386.1c-.138,24.584-17.13,48.17-47.21,65.557-62.652,36.226-163.921,36.223-226.179,0l-17.26-10.04c51.956,29.175,135.03,28.881,186.62-.95,25.04-14.472,39.192-34.1,39.307-54.575H3206.656" transform="translate(-2820.521 -577.316)" fill="#d9fbfb"/>
            <path id="Path_10143" data-name="Path 10143" d="M3282.6,844.816c41.371,23.97,108.489,23.924,150.029-.082l.15-.087c19.9-11.54,31.118-27.161,31.192-43.453h65.05c-.115,20.474-14.266,40.1-39.307,54.576-51.59,29.83-134.665,30.132-186.62.949-.555-.312-1.1-.624-1.649-.942l-1.994-1.159-3.579-2.086-.747-.435-1.534-.9-.767-.453-2.434-1.415-2.513-1.461-2.6-1.51-2.659-1.536" transform="translate(-2821.509 -577.318)" fill="#18bdba"/>
            <path id="Path_10144" data-name="Path 10144" d="M3358.935,801.191H3615.3c-.074,16.292-11.293,31.914-31.192,43.453l-.15.087c-41.539,24.006-108.66,24.057-150.029.082l-1.184-.689-1.087-.632-.568-.33h-.015l-.552-.32-1.184-.691-.767-.443-.44-.256-.616-.358-.632-.369-.649-.379-1.3-.755-.649-.376-.665-.386-.941-.548-1.12-.65-2.107-1.226-2.659-1.548-.959-.558-21.7-12.622-1.069-.622-1.056-.614-1.038-.6-6.049-3.516-.956-.558L3358.93,801.2" transform="translate(-2972.834 -577.318)" fill="#343a3f"/>
            <path id="Path_10145" data-name="Path 10145" d="M3206.656,785.218h321.412c.115-20.474-13.806-40.113-38.693-54.593-51.817-30.143-136.114-30.132-188.269,0l19.017-10.989c62.668-36.216,163.937-36.216,226.195,0,29.888,17.387,46.6,40.981,46.473,65.575H3206.656" transform="translate(-2820.554 -561.344)" fill="#343a3f"/>
            <path id="Path_10146" data-name="Path 10146" d="M3282.6,787.9h256.376c.092-16.282-10.965-31.913-30.734-43.45-41.258-24.1-108.486-24.151-150.161-.161l18.968-10.964c52.157-30.14,136.452-30.15,188.269,0,24.892,14.48,38.808,34.122,38.693,54.593H3282.6" transform="translate(-2896.499 -564.024)" fill="#d9fbfb"/>
            <path id="Path_10147" data-name="Path 10147" d="M3358.912,790.587l75.482-43.619c41.674-23.99,108.916-23.934,150.161.161,19.769,11.537,30.826,27.169,30.734,43.451H3358.912" transform="translate(-2972.81 -566.713)" fill="#18bdba"/>
            <path id="Path_10148" data-name="Path 10148" d="M3708.14,876.167l19.019-10.989c-52.157,30.14-52.413,79.016-.6,109.159,24.877,14.472,58.707,22.6,94.015,22.6l-.212,37.529c-42.416,0-83.04-9.764-112.945-27.161-62.243-36.208-61.913-94.924.721-131.14" transform="translate(-3435.504 -586.719)" fill="#d9fbfb"/>
            <path id="Path_10149" data-name="Path 10149" d="M3700,863.289l2.007-1.162,3.607-2.083.767-.445,1.549-.9.785-.453,2.449-1.415,2.528-1.461,2.6-1.5,2.695-1.556c-41.529,24.093-41.618,63.075-.2,87.073,19.835,11.5,46.742,17.953,74.825,17.953h.013l-.209,37.7c-35.306,0-69.136-8.131-94.013-22.6-51.817-30.143-51.556-79.019.6-109.159" transform="translate(-3408.341 -584.829)" fill="#18bdba"/>
            <path id="Path_10150" data-name="Path 10150" d="M3690.943,844.8l1.192-.688,1.094-.632.57-.33.573-.33,1.174-.681.785-.453.44-.256.621-.358.636-.369.637-.369,1.306-.755.667-.386.67-.386.931-.537,1.143-.66,2.122-1.226,2.677-1.548.964-.555,21.839-12.622,1.061-.614,1.061-.614,1.061-.612,6.075-3.511.979-.566,25.186-14.557-.836,148.64c-28.083,0-54.99-6.452-74.825-17.954-41.418-24-41.332-62.98.2-87.073" transform="translate(-3380.306 -577.316)" fill="#343a3f"/>
            <path id="Path_10151" data-name="Path 10151" d="M3474.174,801.191l112.73,65.578c62.243,36.205,61.929,94.914-.723,131.14-30.1,17.4-70.846,27.159-113.25,27.159l.21-37.529.21-37.7h0l-.208,37.7c35.306,0,69.228-8.131,94.253-22.611,52.157-30.143,52.446-79.019.614-109.151l-93.831-54.586" transform="translate(-3088.072 -577.318)" fill="#343a3f"/>
            <path id="Path_10152" data-name="Path 10152" d="M3505.279,801.191l93.831,54.586c51.832,30.132,51.541,79.008-.614,109.151-25.025,14.48-58.948,22.611-94.253,22.611l.207-37.7h0c28.1,0,55.079-6.462,75.06-17.971l.151-.087c41.523-24,41.8-62.924.6-86.968l-74.991-43.625" transform="translate(-3119.177 -577.317)" fill="#d9fbfb"/>
            <path id="Path_10153" data-name="Path 10153" d="M3536.525,801.191l74.991,43.625c41.207,24.044,40.925,62.957-.6,86.968l-.15.087c-19.981,11.517-46.962,17.961-75.061,17.971h-.013l.836-148.64" transform="translate(-3150.424 -577.318)" fill="#18bdba"/>
            <path id="Path_10154" data-name="Path 10154" d="M3817.038,719.655c62.667-36.218,163.918-36.226,226.179,0h.015l18.879,10.982c-51.817-30.143-136.1-30.143-188.253,0-25.056,14.48-39.177,34.112-39.292,54.583h-64.723c.12-24.594,17.11-48.18,47.195-65.565" transform="translate(-3769.843 -561.347)" fill="#d9fbfb"/>
            <path id="Path_10155" data-name="Path 10155" d="M3787.024,733.313c52.157-30.143,136.436-30.143,188.253,0h.016l18.828,10.951c-41.363-23.967-108.5-23.913-150.041.09l-.123.072c-19.881,11.547-31.1,27.169-31.208,43.461h-65.017c.115-20.474,14.236-40.1,39.292-54.583" transform="translate(-3683.01 -564.023)" fill="#18bdba"/>
            <path id="Path_10156" data-name="Path 10156" d="M3691.07,747.055c41.536-24,108.678-24.057,150.041-.089h.018l74.973,43.612H3659.74c.11-16.292,11.326-31.914,31.207-43.461l.123-.072" transform="translate(-3530 -566.714)" fill="#343a3f"/>
            <path id="Path_10157" data-name="Path 10157" d="M3659.724,801.191h64.736c-.115,20.474,13.783,40.1,38.679,54.583,51.814,30.143,136.114,30.132,188.268,0l94.433-54.576-113.45,65.565c-62.667,36.218-163.921,36.226-226.178,0-29.913-17.4-46.63-40.981-46.473-65.575" transform="translate(-3659.724 -577.317)" fill="#343a3f"/>
            <path id="Path_10158" data-name="Path 10158" d="M3659.725,801.19h65.018c-.09,16.3,10.949,31.924,30.719,43.461,41.272,24.085,108.5,24.162,150.179.154L3981.1,801.19l-94.433,54.576c-52.157,30.14-136.453,30.15-188.268,0-24.9-14.48-38.793-34.112-38.679-54.583" transform="translate(-3594.989 -577.316)" fill="#d9fbfb"/>
            <path id="Path_10159" data-name="Path 10159" d="M3659.74,801.191H3916.1l-75.464,43.614c-41.674,24.008-108.916,23.931-150.178-.154-19.769-11.537-30.809-27.159-30.719-43.461" transform="translate(-3530 -577.318)" fill="#18bdba"/>
            <path id="Path_10160" data-name="Path 10160" d="M3472.472,538.76c42.4,0,83.024,9.774,112.927,27.151,62.261,36.218,61.931,94.947-.736,131.15l-19.017,10.989-1.992,1.152-3.607,2.086-.767.443-1.552.9-.782.453-2.449,1.415-2.531,1.461-2.6,1.5-2.692,1.559-1.191.688-1.094.632-.57.33-.573.33-1.191.688-.767.443-.442.256-.619.358-.636.366-.637.369-1.306.768-.67.386-.667.386-.931.537-1.143.66-2.122,1.228-2.677,1.536-.964.558-21.841,12.622-1.077.622-1.061.614-1.046.6-6.087,3.519-.964.555-25.2,14.565,25.2-14.565.964-.555,6.087-3.519,1.046-.6,1.061-.614,1.077-.622,21.841-12.622.964-.558,2.677-1.536,2.122-1.228,1.143-.66.931-.537.667-.386.67-.386,1.306-.768.637-.369.636-.366.619-.358.442-.256.767-.443,1.191-.688.573-.33.57-.33,1.094-.632,1.191-.688,2.692-1.559,2.6-1.5,2.531-1.461,2.449-1.415.782-.453,1.552-.9.767-.443,3.607-2.086,1.992-1.152c52.17-30.15,52.446-79.016.629-109.159-24.895-14.48-58.707-22.6-94.015-22.6L3472.045,614l.215-37.708.212-37.528" transform="translate(-3085.094 -538.76)" fill="#d9fbfb"/>
            <path id="Path_10161" data-name="Path 10161" d="M3503.852,582.752c35.308,0,69.121,8.123,94.016,22.6,51.817,30.143,51.541,79.008-.629,109.159l-1.992,1.152-3.607,2.086-.767.443-1.552.9-.782.453-2.449,1.415-2.531,1.461-2.6,1.5-2.692,1.559-1.191.689-1.094.632-.57.33-.573.33-1.191.688-.767.443-.442.256-.619.358-.636.366-.637.369-1.307.768-.67.386-.667.386-.931.537-1.143.66-2.122,1.228-2.677,1.536-.964.558-21.841,12.622-1.077.622-1.061.614-1.046.6-6.087,3.519-.964.555-25.2,14.565,25.2-14.565.964-.555,6.087-3.519,1.046-.6,1.061-.614,1.077-.622L3560.069,736l.964-.558,2.677-1.536,2.122-1.228,1.143-.66.931-.537.667-.386.67-.386,1.307-.768.637-.369.636-.366.619-.358.442-.256.767-.443,1.191-.688.573-.33.57-.33,1.094-.632,1.191-.689c41.529-24.1,41.615-63.075.212-87.065-19.83-11.5-46.752-17.961-74.845-17.953l.214-37.708" transform="translate(-3116.687 -545.224)" fill="#18bdba"/>
            <path id="Path_10162" data-name="Path 10162" d="M3535.4,626.954c28.093,0,55.015,6.454,74.845,17.953,41.4,23.99,41.317,62.97-.212,87.065l-1.191.688-1.094.632-.57.33-.573.33-1.191.688-.767.443-.442.256-.619.358-.636.366-.637.369-1.306.768-.67.386-.667.386-.931.537-1.143.66-2.122,1.228-2.677,1.535-.964.558-21.842,12.622-1.076.622-1.061.614-1.046.6-6.087,3.519-.964.555-25.2,14.565.849-148.637" transform="translate(-3148.452 -551.718)" fill="#343a3f"/>
            <path id="Path_10163" data-name="Path 10163" d="M3705.43,565.919c30.085-17.385,70.821-27.159,113.262-27.159l-.215,37.528c-35.3,0-69.225,8.131-94.266,22.6-52.17,30.15-52.428,79.026-.614,109.169h-.015L3704.7,697.079c-62.259-36.216-61.929-94.932.739-131.15" transform="translate(-3431.299 -538.76)" fill="#343a3f"/>
            <path id="Path_10164" data-name="Path 10164" d="M3697.794,605.355c25.04-14.472,58.963-22.6,94.268-22.6l-.214,37.708L3791,769.1l.836-148.64c-28.1,0-55.1,6.454-75.06,17.953l-.121.069c-41.536,24.005-41.845,62.937-.628,87.014h-.018l-18.828-10.951c-51.814-30.143-51.556-79.019.614-109.169" transform="translate(-3404.897 -545.224)" fill="#d9fbfb"/>
            <path id="Path_10165" data-name="Path 10165" d="M3690.107,644.973l.12-.069c19.963-11.5,46.962-17.961,75.06-17.953l-.836,148.64-74.973-43.612c-41.217-24.057-40.907-63,.629-87.014" transform="translate(-3378.349 -551.717)" fill="#18bdba"/>
          </g>
        </g>
      </g>
      <g id="Group_10895" data-name="Group 10895" transform="translate(408.995 327.41)">
        <g id="Group_10892" data-name="Group 10892" transform="translate(0 0)">
          <path id="Path_10166" data-name="Path 10166" d="M3240.062,504.578l356.6,207.437L3955.6,504.58,3599,297.141Z" transform="translate(-3240.062 -297.141)" fill="#18bdba"/>
          <path id="Path_10167" data-name="Path 10167" d="M3660.958,539.875l.23,81.129,356.6,207.437-.229-81.129Z" transform="translate(-3660.958 -332.805)" fill="#d9fbfb"/>
          <path id="Path_10168" data-name="Path 10168" d="M3240.956,747.313l.229,81.129,358.938-207.431-.231-81.129Z" transform="translate(-2885.349 -332.806)" fill="#343a3f"/>
        </g>
        <g id="Group_10894" data-name="Group 10894" transform="translate(6.037 3.109)">
          <path id="Path_10169" data-name="Path 10169" d="M3950.566,504.791l-350.7-204.005-352.992,204,350.7,204Z" transform="translate(-3246.875 -300.786)" fill="none"/>
          <g id="Group_10893" data-name="Group 10893" transform="translate(51.531 29.879)">
            <path id="Path_10170" data-name="Path 10170" d="M3307.341,539.923h300.3c-.107,19.121-13.323,37.465-36.718,50.989-48.729,28.175-127.494,28.174-175.917,0l-13.425-7.809c40.41,22.692,105.023,22.463,145.148-.738,19.476-11.256,30.483-26.526,30.573-42.448H3307.341" transform="translate(-3007.014 -365.799)" fill="#d9fbfb"/>
            <path id="Path_10171" data-name="Path 10171" d="M3366.409,573.855c32.177,18.643,84.381,18.607,116.689-.063l.117-.068c15.477-8.975,24.2-21.125,24.261-33.8h50.595c-.09,15.924-11.1,31.191-30.573,42.447-40.125,23.2-104.739,23.437-145.149.739-.431-.243-.856-.486-1.283-.733l-1.551-.9-2.783-1.623-.582-.338-1.193-.7-.6-.352-1.893-1.1-1.955-1.136-2.018-1.175-2.068-1.194" transform="translate(-3007.782 -365.801)" fill="#18bdba"/>
            <path id="Path_10172" data-name="Path 10172" d="M3425.78,539.924h199.393c-.058,12.672-8.784,24.822-24.261,33.8l-.117.067c-32.308,18.671-84.514,18.711-116.689.064l-.92-.536-.845-.491-.442-.257h-.012l-.429-.249-.92-.537-.6-.344-.342-.2-.48-.278-.491-.287-.505-.294-1.008-.587-.5-.293-.517-.3-.732-.426-.871-.506-1.638-.953-2.068-1.2-.746-.434-16.877-9.817-.832-.484-.821-.478-.807-.469L3446,551.692l-.744-.434-19.475-11.33" transform="translate(-3125.479 -365.8)" fill="#343a3f"/>
            <path id="Path_10173" data-name="Path 10173" d="M3307.341,527.5h249.988c.089-15.924-10.738-31.2-30.1-42.461-40.3-23.444-105.867-23.437-146.431,0l14.792-8.548c48.741-28.168,127.506-28.168,175.929,0,23.246,13.524,36.241,31.874,36.146,51H3307.341" transform="translate(-3007.039 -353.377)" fill="#343a3f"/>
            <path id="Path_10174" data-name="Path 10174" d="M3366.409,529.585h199.4c.072-12.663-8.529-24.821-23.9-33.795-32.089-18.74-84.378-18.785-116.792-.125l14.753-8.527c40.567-23.443,106.129-23.45,146.431,0,19.36,11.262,30.184,26.539,30.094,42.462H3366.409" transform="translate(-3066.108 -355.461)" fill="#d9fbfb"/>
            <path id="Path_10175" data-name="Path 10175" d="M3425.761,531.676l58.708-33.926c32.414-18.659,84.712-18.615,116.792.125,15.375,8.973,23.976,21.131,23.9,33.795h-199.4" transform="translate(-3125.46 -357.552)" fill="#18bdba"/>
            <path id="Path_10176" data-name="Path 10176" d="M3697.384,598.239l14.792-8.547c-40.566,23.443-40.765,61.457-.465,84.9,19.349,11.256,45.662,17.579,73.124,17.579l-.166,29.189c-32.99,0-64.586-7.593-87.846-21.125-48.411-28.162-48.155-73.83.561-102" transform="translate(-3485.334 -373.112)" fill="#d9fbfb"/>
            <path id="Path_10177" data-name="Path 10177" d="M3691.049,588.222l1.561-.9,2.806-1.621.6-.346,1.205-.7.61-.352,1.9-1.1,1.967-1.136,2.018-1.167,2.1-1.21c-32.3,18.739-32.37,49.058-.154,67.723,15.427,8.945,36.355,13.963,58.2,13.963h.01L3763.7,690.7c-27.459,0-53.772-6.324-73.121-17.58-40.3-23.443-40.1-61.459.465-84.9" transform="translate(-3464.207 -371.643)" fill="#18bdba"/>
            <path id="Path_10178" data-name="Path 10178" d="M3684.01,573.841l.927-.535.851-.492.444-.257.445-.257.913-.529.611-.352.342-.2.483-.278.5-.287.5-.287,1.017-.587.519-.3.521-.3.724-.418.889-.514,1.651-.953,2.082-1.2.749-.432,16.987-9.817.825-.478.826-.478.825-.476,4.725-2.731.762-.44,19.589-11.322-.65,115.609c-21.842,0-42.77-5.018-58.2-13.963-32.214-18.665-32.147-48.984.154-67.723" transform="translate(-3442.402 -365.799)" fill="#343a3f"/>
            <path id="Path_10179" data-name="Path 10179" d="M3515.41,539.924l87.68,51.005c48.411,28.159,48.167,73.822-.563,102-23.411,13.536-55.1,21.123-88.083,21.123l.164-29.189.163-29.322h0l-.161,29.322c27.46,0,53.844-6.324,73.307-17.586,40.567-23.443,40.792-61.459.477-84.895l-72.979-42.456" transform="translate(-3215.109 -365.8)" fill="#343a3f"/>
            <path id="Path_10180" data-name="Path 10180" d="M3539.6,539.924l72.979,42.456c40.314,23.437,40.087,61.451-.477,84.9-19.463,11.262-45.848,17.586-73.308,17.586l.161-29.323h0c21.855,0,42.84-5.025,58.38-13.977l.118-.068c32.3-18.664,32.514-48.94.465-67.641l-58.326-33.93" transform="translate(-3239.302 -365.8)" fill="#d9fbfb"/>
            <path id="Path_10181" data-name="Path 10181" d="M3563.906,539.924l58.326,33.93c32.05,18.7,31.831,48.967-.465,67.642l-.117.067c-15.541,8.957-36.526,13.969-58.38,13.978h-.01l.65-115.61" transform="translate(-3263.604 -365.8)" fill="#18bdba"/>
            <path id="Path_10182" data-name="Path 10182" d="M3782.083,476.508c48.741-28.17,127.492-28.176,175.917,0h.012l14.683,8.541c-40.3-23.444-105.855-23.444-146.418,0-19.488,11.262-30.471,26.532-30.561,42.453h-50.34c.094-19.129,13.308-37.473,36.707-50.994" transform="translate(-3745.376 -353.378)" fill="#d9fbfb"/>
            <path id="Path_10183" data-name="Path 10183" d="M3758.74,487.131c40.566-23.444,106.117-23.444,146.418,0h.012l14.644,8.517c-32.17-18.641-84.392-18.6-116.7.07l-.1.055c-15.463,8.981-24.187,21.132-24.272,33.8h-50.569c.09-15.924,11.072-31.191,30.561-42.453" transform="translate(-3677.839 -355.46)" fill="#18bdba"/>
            <path id="Path_10184" data-name="Path 10184" d="M3684.108,497.818c32.306-18.669,84.527-18.711,116.7-.069h.014l58.312,33.92H3659.74c.085-12.672,8.81-24.822,24.272-33.8l.1-.055" transform="translate(-3558.831 -357.553)" fill="#343a3f"/>
            <path id="Path_10185" data-name="Path 10185" d="M3659.728,539.924h50.35c-.09,15.924,10.72,31.192,30.083,42.454,40.3,23.444,105.867,23.436,146.431,0l73.447-42.448-88.238,51c-48.741,28.169-127.494,28.175-175.917,0-23.266-13.536-36.268-31.874-36.146-51" transform="translate(-3659.728 -365.8)" fill="#343a3f"/>
            <path id="Path_10186" data-name="Path 10186" d="M3659.729,539.923H3710.3c-.07,12.68,8.516,24.83,23.892,33.8,32.1,18.733,84.392,18.792,116.806.119l58.693-33.923-73.447,42.448c-40.567,23.442-106.131,23.45-146.431,0-19.363-11.262-30.173-26.531-30.083-42.454" transform="translate(-3609.378 -365.799)" fill="#d9fbfb"/>
            <path id="Path_10187" data-name="Path 10187" d="M3659.74,539.924h199.392l-58.694,33.923c-32.414,18.673-84.712,18.613-116.806-.119-15.376-8.974-23.962-21.123-23.892-33.8" transform="translate(-3558.831 -365.8)" fill="#18bdba"/>
            <path id="Path_10188" data-name="Path 10188" d="M3514.087,335.811c32.978,0,64.574,7.6,87.832,21.118,48.425,28.169,48.168,73.847-.573,102.006l-14.792,8.547-1.548.9L3582.2,470l-.6.344-1.207.7-.609.352-1.905,1.1-1.969,1.137L3573.9,474.8l-2.094,1.212-.926.536-.852.491-.443.257-.446.257-.927.536-.6.345-.344.2-.481.279-.5.284-.495.287-1.016.6-.521.3-.519.3-.724.418-.89.514-1.65.955-2.082,1.194-.75.434-16.987,9.817-.838.484-.825.478-.813.469-4.735,2.738-.75.432-19.6,11.328,19.6-11.328.75-.432,4.735-2.738.813-.469.825-.478.838-.484,16.987-9.817.75-.434,2.082-1.194,1.65-.955.89-.514.724-.418.519-.3.521-.3,1.016-.6.495-.287.5-.284.481-.279.344-.2.6-.345.927-.536.446-.257.443-.257.852-.491.926-.536,2.094-1.212,2.018-1.166,1.969-1.137,1.905-1.1.609-.352,1.207-.7.6-.344,2.807-1.623,1.548-.9c40.577-23.45,40.792-61.457.489-84.9-19.363-11.262-45.661-17.58-73.123-17.58l-.167,29.329.167-29.329.166-29.189" transform="translate(-3212.793 -335.811)" fill="#d9fbfb"/>
            <path id="Path_10189" data-name="Path 10189" d="M3538.494,370.027c27.462,0,53.761,6.318,73.123,17.58,40.3,23.444,40.088,61.451-.489,84.9l-1.548.9-2.807,1.623-.6.344-1.207.7-.609.352-1.905,1.1-1.969,1.137-2.018,1.166-2.094,1.212-.926.536-.852.491-.443.257-.446.257-.927.536-.6.344-.344.2-.481.278-.5.285-.495.287-1.016.6-.521.3-.519.3-.724.418-.89.514-1.65.955-2.082,1.194-.75.433-16.987,9.817-.838.485-.825.477-.813.47-4.735,2.737-.75.433-19.6,11.328,19.6-11.328.75-.433,4.735-2.737.813-.47.825-.477.838-.485,16.987-9.817.75-.433,2.082-1.194,1.65-.955.89-.514.724-.418.519-.3.521-.3,1.016-.6.495-.287.5-.285.481-.278.344-.2.6-.344.927-.536.446-.257.443-.257.852-.491.926-.536c32.3-18.74,32.367-49.058.165-67.717-15.424-8.944-36.363-13.969-58.214-13.963l.167-29.329" transform="translate(-3237.365 -340.838)" fill="#18bdba"/>
            <path id="Path_10190" data-name="Path 10190" d="M3563.033,404.407c21.851,0,42.79,5.019,58.213,13.963,32.2,18.659,32.135,48.977-.165,67.717l-.926.536-.851.491-.444.257-.445.257-.927.536-.6.344-.344.2-.481.278-.5.285-.5.287-1.016.6-.521.3-.519.3-.724.418-.889.514-1.651.955-2.081,1.194-.75.433-16.989,9.817-.837.484-.825.478-.814.47-4.735,2.737-.749.433-19.6,11.328.66-115.607" transform="translate(-3262.072 -345.889)" fill="#343a3f"/>
            <path id="Path_10191" data-name="Path 10191" d="M3695.276,356.935c23.4-13.522,55.083-21.124,88.093-21.124L3783.2,365c-27.458,0-53.843,6.324-73.318,17.58-40.577,23.45-40.778,61.465-.477,84.909h-.012l-14.684-8.541c-48.423-28.168-48.167-73.836.574-102.006" transform="translate(-3482.063 -335.811)" fill="#343a3f"/>
            <path id="Path_10192" data-name="Path 10192" d="M3689.337,387.607c19.475-11.256,45.86-17.58,73.32-17.58l-.167,29.329-.66,115.606.65-115.609c-21.854,0-42.853,5.02-58.38,13.964l-.093.054c-32.307,18.67-32.547,48.95-.49,67.677h-.014l-14.643-8.517c-40.3-23.444-40.1-61.459.477-84.909" transform="translate(-3461.528 -340.838)" fill="#d9fbfb"/>
            <path id="Path_10193" data-name="Path 10193" d="M3683.359,418.422l.093-.054c15.527-8.944,36.526-13.97,58.38-13.964l-.65,115.609-58.312-33.92c-32.058-18.711-31.817-49,.49-67.677" transform="translate(-3440.881 -345.889)" fill="#18bdba"/>
          </g>
        </g>
      </g>
      <g id="Group_10899" data-name="Group 10899" transform="translate(511.194 164.161)">
        <g id="Group_10896" data-name="Group 10896">
          <path id="Path_10194" data-name="Path 10194" d="M3359.97,253.41,3614.685,401.58l256.381-148.168L3616.351,105.241Z" transform="translate(-3359.97 -105.241)" fill="#18bdba"/>
          <path id="Path_10195" data-name="Path 10195" d="M3660.61,278.623l.165,57.949L3915.49,484.741l-.163-57.949Z" transform="translate(-3660.61 -130.715)" fill="#d9fbfb"/>
          <path id="Path_10196" data-name="Path 10196" d="M3360.608,426.793l.163,57.949,256.384-148.165-.165-57.949Z" transform="translate(-3106.604 -130.716)" fill="#343a3f"/>
        </g>
        <g id="Group_10898" data-name="Group 10898" transform="translate(4.312 2.221)">
          <path id="Path_10197" data-name="Path 10197" d="M3867.473,253.562l-250.5-145.718L3364.837,253.561l250.5,145.717Z" transform="translate(-3364.837 -107.844)" fill="none"/>
          <g id="Group_10897" data-name="Group 10897" transform="translate(36.809 21.343)">
            <path id="Path_10198" data-name="Path 10198" d="M3408.026,278.657h214.5c-.077,13.658-9.517,26.761-26.228,36.42-34.807,20.126-91.067,20.124-125.655,0l-9.59-5.577c28.865,16.208,75.017,16.045,103.678-.528,13.911-8.04,21.773-18.947,21.837-30.319H3408.026" transform="translate(-3193.507 -154.283)" fill="#d9fbfb"/>
            <path id="Path_10199" data-name="Path 10199" d="M3450.218,302.894c22.984,13.316,60.272,13.291,83.349-.046l.084-.048c11.054-6.411,17.288-15.09,17.329-24.141h36.139c-.064,11.375-7.926,22.28-21.837,30.32-28.661,16.573-74.813,16.74-103.678.527-.308-.173-.612-.346-.916-.523l-1.108-.644-1.988-1.158-.415-.242-.852-.5-.426-.252-1.353-.787-1.4-.811-1.442-.839-1.477-.853" transform="translate(-3194.056 -154.284)" fill="#18bdba"/>
            <path id="Path_10200" data-name="Path 10200" d="M3492.626,278.658h142.423c-.041,9.051-6.274,17.729-17.329,24.14l-.084.049c-23.077,13.336-60.366,13.364-83.349.045l-.657-.382-.6-.351-.315-.183h-.009l-.307-.177-.657-.384-.426-.247-.245-.142-.342-.2-.351-.2-.361-.21-.72-.42-.36-.209-.369-.215-.523-.3-.622-.362-1.17-.681-1.477-.86-.533-.311-12.056-7.012-.593-.346-.586-.341-.577-.335-3.36-1.954-.532-.31-13.911-8.093" transform="translate(-3278.125 -154.284)" fill="#343a3f"/>
            <path id="Path_10201" data-name="Path 10201" d="M3408.025,269.784h178.563c.064-11.375-7.67-22.286-21.5-30.33-28.788-16.746-75.62-16.74-104.594,0l10.565-6.1c34.815-20.12,91.076-20.12,125.664,0,16.6,9.659,25.886,22.767,25.818,36.431h-214.52" transform="translate(-3193.525 -145.41)" fill="#343a3f"/>
            <path id="Path_10202" data-name="Path 10202" d="M3450.218,271.273h142.432c.051-9.046-6.092-17.73-17.074-24.139-22.921-13.386-60.27-13.417-83.423-.09l10.538-6.091c28.976-16.744,75.806-16.75,104.593,0,13.829,8.045,21.561,18.957,21.5,30.329H3450.218" transform="translate(-3235.718 -146.899)" fill="#d9fbfb"/>
            <path id="Path_10203" data-name="Path 10203" d="M3492.613,272.767l41.934-24.233c23.153-13.328,60.509-13.3,83.423.09,10.983,6.409,17.126,15.093,17.074,24.14H3492.613" transform="translate(-3278.112 -148.393)" fill="#18bdba"/>
            <path id="Path_10204" data-name="Path 10204" d="M3686.629,320.311l10.566-6.105c-28.976,16.744-29.118,43.9-.332,60.643,13.82,8.04,32.615,12.557,52.23,12.557l-.118,20.849c-23.564,0-46.133-5.424-62.748-15.089-34.58-20.116-34.4-52.735.4-72.855" transform="translate(-3535.166 -159.507)" fill="#d9fbfb"/>
            <path id="Path_10205" data-name="Path 10205" d="M3682.1,313.156l1.115-.646,2-1.157.426-.247.861-.5.436-.252,1.36-.786,1.405-.812,1.441-.833,1.5-.864c-23.072,13.385-23.121,35.042-.109,48.374,11.019,6.39,25.968,9.974,41.569,9.974h.008L3734,386.353c-19.614,0-38.409-4.517-52.229-12.557-28.787-16.746-28.643-43.9.332-60.643" transform="translate(-3520.073 -158.457)" fill="#18bdba"/>
            <path id="Path_10206" data-name="Path 10206" d="M3677.075,302.885l.662-.383.607-.351.317-.183.318-.183.652-.379.435-.252.245-.142.345-.2.354-.2.354-.2.726-.419.371-.215.373-.215.516-.3.635-.367,1.179-.681,1.487-.86.535-.309,12.133-7.012.59-.341.59-.341.59-.34,3.375-1.951.544-.315L3719,278.653l-.464,82.577c-15.6,0-30.55-3.584-41.569-9.973-23.01-13.333-22.963-34.989.109-48.374" transform="translate(-3504.499 -154.283)" fill="#343a3f"/>
            <path id="Path_10207" data-name="Path 10207" d="M3556.647,278.658l62.628,36.431c34.58,20.115,34.4,52.73-.4,72.856-16.722,9.668-39.359,15.087-62.917,15.087l.117-20.849.117-20.944h0l-.115,20.944c19.614,0,38.46-4.517,52.362-12.562,28.976-16.746,29.137-43.9.341-60.639l-52.128-30.325" transform="translate(-3342.147 -154.284)" fill="#343a3f"/>
            <path id="Path_10208" data-name="Path 10208" d="M3573.928,278.658l52.129,30.325c28.8,16.74,28.633,43.893-.341,60.639-13.9,8.044-32.749,12.562-52.363,12.562l.115-20.944h0c15.61,0,30.6-3.591,41.7-9.984l.084-.048c23.068-13.333,23.224-34.958.332-48.316l-41.662-24.236" transform="translate(-3359.428 -154.284)" fill="#d9fbfb"/>
            <path id="Path_10209" data-name="Path 10209" d="M3591.286,278.658l41.662,24.236c22.893,13.357,22.737,34.976-.333,48.315l-.083.049c-11.1,6.4-26.09,9.978-41.7,9.984h-.007l.464-82.578" transform="translate(-3376.786 -154.284)" fill="#18bdba"/>
            <path id="Path_10210" data-name="Path 10210" d="M3747.127,233.36c34.815-20.121,91.066-20.125,125.655,0h.009l10.489,6.1c-28.787-16.746-75.61-16.746-104.585,0-13.92,8.044-21.765,18.951-21.829,30.324h-35.957c.066-13.664,9.5-26.767,26.219-36.425" transform="translate(-3720.908 -145.411)" fill="#d9fbfb"/>
            <path id="Path_10211" data-name="Path 10211" d="M3730.454,240.948c28.976-16.746,75.8-16.746,104.585,0h.009l10.459,6.084c-22.979-13.316-60.28-13.286-83.356.049l-.068.04c-11.045,6.415-17.276,15.093-17.338,24.145h-36.12c.064-11.374,7.909-22.28,21.828-30.324" transform="translate(-3672.668 -146.898)" fill="#18bdba"/>
            <path id="Path_10212" data-name="Path 10212" d="M3677.145,248.582c23.076-13.335,60.377-13.365,83.356-.05h.01l41.651,24.229H3659.74c.061-9.051,6.292-17.729,17.337-24.145l.068-.04" transform="translate(-3587.662 -148.393)" fill="#343a3f"/>
            <path id="Path_10213" data-name="Path 10213" d="M3659.731,278.658H3695.7c-.064,11.374,7.657,22.279,21.487,30.323,28.786,16.746,75.619,16.741,104.593,0l52.463-30.319-63.027,36.425c-34.816,20.121-91.067,20.126-125.656,0-16.619-9.668-25.905-22.767-25.819-36.431" transform="translate(-3659.731 -154.284)" fill="#343a3f"/>
            <path id="Path_10214" data-name="Path 10214" d="M3659.731,278.657h36.12c-.05,9.056,6.083,17.735,17.066,24.145,22.929,13.38,60.28,13.423,83.432.085l41.925-24.23-52.463,30.319c-28.976,16.745-75.807,16.75-104.593,0-13.83-8.044-21.551-18.951-21.487-30.323" transform="translate(-3623.767 -154.283)" fill="#d9fbfb"/>
            <path id="Path_10215" data-name="Path 10215" d="M3659.74,278.658h142.422l-41.924,24.23c-23.153,13.338-60.509,13.3-83.432-.085-10.983-6.409-17.116-15.088-17.066-24.145" transform="translate(-3587.662 -154.284)" fill="#18bdba"/>
            <path id="Path_10216" data-name="Path 10216" d="M3555.7,132.863c23.556,0,46.125,5.43,62.738,15.083,34.59,20.121,34.406,52.749-.409,72.861l-10.565,6.105-1.106.64-2,1.158-.426.247-.863.5-.435.252-1.36.787-1.406.811-1.442.833-1.5.866-.662.382-.607.351-.317.183-.318.183-.662.382-.426.247-.245.142-.344.2-.354.2-.354.2-.726.427-.372.215-.371.215-.517.3-.635.367-1.178.682-1.487.853-.536.31-12.134,7.012-.6.345-.589.341-.581.335-3.382,1.955-.536.309-14,8.091,14-8.091.536-.309,3.382-1.955.581-.335.589-.341.6-.345,12.134-7.012.536-.31,1.487-.853,1.178-.682.635-.367.517-.3.371-.215.372-.215.726-.427.354-.2.354-.2.344-.2.245-.142.426-.247.662-.382.318-.183.317-.183.607-.351.662-.382,1.5-.866,1.442-.833,1.406-.811,1.36-.787.435-.252.863-.5.426-.247,2-1.158,1.106-.64c28.984-16.75,29.137-43.9.349-60.643-13.83-8.045-32.615-12.557-52.23-12.557l-.12,20.948.12-20.948.117-20.849" transform="translate(-3340.492 -132.863)" fill="#d9fbfb"/>
            <path id="Path_10217" data-name="Path 10217" d="M3573.135,157.3c19.615,0,38.4,4.513,52.23,12.557,28.788,16.746,28.635,43.893-.349,60.643l-1.106.64-2,1.158-.426.247-.862.5-.435.252-1.36.787-1.406.811-1.442.833-1.5.866-.662.382-.607.351-.317.183-.318.183-.662.382-.426.247-.245.142-.344.2-.354.2-.354.2-.726.427-.372.215-.371.215-.517.3-.635.367-1.178.682-1.487.854-.536.31-12.134,7.012-.6.345-.589.341-.581.335-3.382,1.955-.536.309-14,8.091,14-8.091.536-.309,3.382-1.955.581-.335.589-.341.6-.345,12.134-7.012.536-.31,1.487-.854,1.178-.682.635-.367.517-.3.371-.215.372-.215.726-.427.354-.2.354-.2.344-.2.245-.142.426-.247.662-.382.318-.183.317-.183.607-.351.662-.382c23.072-13.386,23.12-35.042.118-48.369-11.016-6.388-25.973-9.978-41.581-9.974l.119-20.948" transform="translate(-3358.044 -136.454)" fill="#18bdba"/>
            <path id="Path_10218" data-name="Path 10218" d="M3590.663,181.859c15.607,0,30.564,3.586,41.581,9.974,23,13.328,22.953,34.983-.118,48.369l-.661.382-.608.351-.317.183-.319.183-.661.382-.426.247-.246.142-.344.2-.354.2-.354.2-.725.427-.372.215-.371.214-.517.3-.635.367-1.178.682-1.487.853-.535.311-12.135,7.012-.6.345-.59.341-.581.335-3.382,1.955-.535.308-14,8.091.471-82.576" transform="translate(-3375.691 -140.062)" fill="#343a3f"/>
            <path id="Path_10219" data-name="Path 10219" d="M3685.123,147.951c16.713-9.658,39.344-15.087,62.923-15.087l-.119,20.849c-19.613,0-38.459,4.517-52.37,12.557-28.983,16.75-29.127,43.9-.341,60.649h-.009l-10.489-6.1c-34.588-20.12-34.4-52.74.411-72.861" transform="translate(-3532.829 -132.863)" fill="#343a3f"/>
            <path id="Path_10220" data-name="Path 10220" d="M3680.88,169.86c13.911-8.04,32.757-12.557,52.372-12.557l-.12,20.948-.472,82.577.464-82.578c-15.61,0-30.609,3.585-41.7,9.973l-.066.038c-23.076,13.337-23.247,34.965-.349,48.341H3691l-10.459-6.084c-28.786-16.746-28.642-43.9.341-60.649" transform="translate(-3518.16 -136.454)" fill="#d9fbfb"/>
            <path id="Path_10221" data-name="Path 10221" d="M3676.611,191.87l.066-.038c11.091-6.388,26.09-9.978,41.7-9.973l-.464,82.578-41.651-24.229c-22.9-13.365-22.727-35,.349-48.341" transform="translate(-3503.413 -140.062)" fill="#18bdba"/>
          </g>
        </g>
      </g>
      <g id="Group_10837-2" data-name="Group 10837" transform="translate(613.491 0)">
        <g id="Group_10832-2" data-name="Group 10832">
          <g id="Group_10831-2" data-name="Group 10831">
            <g id="Group_10828-2" data-name="Group 10828" transform="translate(0)">
              <path id="Path_10082-3" data-name="Path 10082" d="M3479.878,2.243l152.829,88.9,153.829-88.9-152.829-88.9Z" transform="translate(-3479.878 86.659)" fill="#18bdba"/>
            </g>
            <g id="Group_10829-2" data-name="Group 10829" transform="translate(0 88.745)">
              <path id="Path_10083-3" data-name="Path 10083" d="M3660.262,17.37l.1,34.77,152.829,88.9-.1-34.77Z" transform="translate(-3660.262 -17.37)" fill="#d9fbfb"/>
            </g>
            <g id="Group_10830-2" data-name="Group 10830" transform="translate(152.403 88.747)">
              <path id="Path_10084-3" data-name="Path 10084" d="M3480.261,106.272l.1,34.77,153.83-88.9-.1-34.77Z" transform="translate(-3480.261 -17.373)" fill="#343a3f"/>
            </g>
          </g>
        </g>
        <g id="Group_10836-2" data-name="Group 10836" transform="translate(2.588 1.333)">
          <g id="Group_10835-2" data-name="Group 10835">
            <g id="Group_10901" data-name="Group 10901">
              <g id="Group_10900" data-name="Group 10900" clip-path="url(#clip-path-3)">
                <g id="Group_10834-2" data-name="Group 10834" transform="translate(22.084 12.805)">
                  <g id="Group_10833-2" data-name="Group 10833">
                    <path id="Path_10085-3" data-name="Path 10085" d="M3508.712,17.391h128.7c-.046,8.195-5.71,16.057-15.737,21.852-20.884,12.075-54.64,12.074-75.393,0l-5.753-3.347c17.318,9.725,45.01,9.627,62.207-.316,8.347-4.824,13.064-11.368,13.1-18.192H3508.712" transform="translate(-3380 57.234)" fill="#d9fbfb"/>
                    <path id="Path_10086-3" data-name="Path 10086" d="M3534.027,31.933c13.79,7.99,36.163,7.975,50.009-.027l.05-.029c6.633-3.847,10.373-9.054,10.4-14.484h21.683c-.038,6.825-4.755,13.368-13.1,18.192-17.2,9.943-44.888,10.044-62.207.316-.185-.1-.367-.208-.55-.314l-.665-.386-1.193-.7-.249-.145-.511-.3-.256-.151-.812-.472-.837-.487-.865-.5-.886-.512" transform="translate(-3380.33 57.233)" fill="#18bdba"/>
                    <path id="Path_10087-3" data-name="Path 10087" d="M3559.472,17.391h85.454c-.024,5.431-3.764,10.638-10.4,14.484l-.05.029c-13.847,8-36.22,8.019-50.009.027l-.395-.229-.362-.211-.189-.11h0l-.184-.107-.395-.23-.256-.148-.146-.085-.206-.119-.21-.123-.216-.126-.432-.252-.216-.125-.222-.129-.313-.183-.374-.217-.7-.409-.886-.516-.32-.186-7.233-4.207-.356-.207-.352-.2-.346-.2-2.016-1.172-.319-.186-8.347-4.856" transform="translate(-3430.771 57.233)" fill="#343a3f"/>
                    <path id="Path_10088-3" data-name="Path 10088" d="M3508.712,12.067h107.137c.039-6.825-4.6-13.371-12.9-18.2-17.272-10.048-45.371-10.044-62.756,0l6.339-3.663c20.889-12.072,54.646-12.072,75.4,0,9.963,5.8,15.532,13.66,15.491,21.858H3508.712" transform="translate(-3380.011 62.558)" fill="#343a3f"/>
                    <path id="Path_10089-3" data-name="Path 10089" d="M3534.027,12.96h85.458c.031-5.427-3.655-10.638-10.245-14.484-13.752-8.032-36.162-8.05-50.054-.054l6.323-3.655c17.386-10.047,45.484-10.05,62.756,0,8.3,4.827,12.936,11.374,12.9,18.2H3534.027" transform="translate(-3405.326 61.665)" fill="#d9fbfb"/>
                    <path id="Path_10090-3" data-name="Path 10090" d="M3559.464,13.856l25.16-14.54c13.892-8,36.305-7.978,50.054.054,6.59,3.846,10.275,9.056,10.245,14.484h-85.459" transform="translate(-3430.763 60.768)" fill="#18bdba"/>
                    <path id="Path_10091-3" data-name="Path 10091" d="M3675.873,42.383l6.34-3.663c-17.386,10.047-17.471,26.339-.2,36.386,8.292,4.824,19.569,7.534,31.338,7.534l-.071,12.509c-14.138,0-27.68-3.254-37.648-9.054-20.748-12.069-20.638-31.641.24-43.713" transform="translate(-3584.995 54.1)" fill="#d9fbfb"/>
                    <path id="Path_10092-3" data-name="Path 10092" d="M3673.159,38.09l.669-.387,1.2-.694.256-.148.516-.3.262-.151.816-.472.843-.487.865-.5.9-.519c-13.843,8.031-13.873,21.025-.065,29.024,6.612,3.834,15.581,5.984,24.942,5.984h0l-.07,12.567c-11.768,0-23.045-2.71-31.337-7.534-17.272-10.048-17.186-26.34.2-36.386" transform="translate(-3575.941 54.73)" fill="#18bdba"/>
                    <path id="Path_10093-3" data-name="Path 10093" d="M3670.141,31.927l.4-.229.365-.211.19-.11.191-.11.391-.227.262-.151.146-.085.207-.119.212-.123.212-.123.436-.252.222-.129.223-.129.31-.179.381-.22.707-.409.892-.516.321-.185,7.28-4.207.354-.2.354-.2.354-.2,2.025-1.17.326-.189,8.4-4.852-.279,49.547c-9.361,0-18.33-2.151-24.942-5.984-13.806-8-13.777-20.993.065-29.024" transform="translate(-3566.596 57.234)" fill="#343a3f"/>
                    <path id="Path_10094-3" data-name="Path 10094" d="M3597.885,17.391l37.577,21.859c20.748,12.068,20.643,31.638-.241,43.713-10.034,5.8-23.616,9.053-37.75,9.053l.07-12.509.07-12.567h0l-.069,12.567c11.769,0,23.076-2.71,31.418-7.537,17.386-10.048,17.482-26.34.2-36.384l-31.277-18.2" transform="translate(-3469.185 57.233)" fill="#343a3f"/>
                    <path id="Path_10095-3" data-name="Path 10095" d="M3608.253,17.391l31.277,18.2c17.277,10.044,17.18,26.336-.2,36.384-8.342,4.827-19.649,7.537-31.418,7.537l.069-12.567h0c9.366,0,18.36-2.154,25.02-5.99l.051-.029c13.841-8,13.935-20.975.2-28.989l-25-14.542" transform="translate(-3479.552 57.234)" fill="#d9fbfb"/>
                    <path id="Path_10096-3" data-name="Path 10096" d="M3618.669,17.391l25,14.542c13.736,8.015,13.642,20.986-.2,28.989l-.05.029c-6.66,3.839-15.654,5.987-25.02,5.99h0l.279-49.547" transform="translate(-3489.968 57.233)" fill="#18bdba"/>
                    <path id="Path_10097-3" data-name="Path 10097" d="M3712.172-9.788c20.889-12.073,54.639-12.075,75.393,0h.005l6.293,3.661c-17.272-10.048-45.366-10.048-62.751,0-8.352,4.827-13.059,11.371-13.1,18.194h-21.574c.04-8.2,5.7-16.06,15.731-21.855" transform="translate(-3696.441 62.557)" fill="#d9fbfb"/>
                    <path id="Path_10098-3" data-name="Path 10098" d="M3702.168-5.235c17.385-10.048,45.479-10.048,62.751,0h0l6.276,3.65c-13.787-7.989-36.168-7.971-50.014.03l-.041.024c-6.627,3.849-10.366,9.056-10.4,14.487h-21.672c.038-6.825,4.745-13.368,13.1-18.194" transform="translate(-3667.497 61.665)" fill="#18bdba"/>
                    <path id="Path_10099-3" data-name="Path 10099" d="M3670.183-.654c13.846-8,36.226-8.019,50.014-.03h.006l24.991,14.537H3659.74c.037-5.431,3.775-10.638,10.4-14.487l.041-.024" transform="translate(-3616.493 60.768)" fill="#343a3f"/>
                    <path id="Path_10100-3" data-name="Path 10100" d="M3659.735,17.391h21.578c-.038,6.825,4.594,13.368,12.893,18.194,17.271,10.048,45.371,10.044,62.756,0l31.477-18.192-37.816,21.855c-20.889,12.073-54.64,12.075-75.393,0-9.971-5.8-15.543-13.66-15.491-21.858" transform="translate(-3659.735 57.234)" fill="#343a3f"/>
                    <path id="Path_10101-3" data-name="Path 10101" d="M3659.735,17.391h21.673c-.03,5.434,3.65,10.641,10.24,14.487,13.758,8.028,36.168,8.054,50.06.051l25.155-14.538-31.477,18.192c-17.386,10.047-45.485,10.05-62.756,0-8.3-4.827-12.931-11.371-12.893-18.194" transform="translate(-3638.157 57.234)" fill="#d9fbfb"/>
                    <path id="Path_10102-3" data-name="Path 10102" d="M3659.74,17.391h85.454l-25.155,14.538c-13.891,8-36.305,7.977-50.06-.051-6.589-3.846-10.269-9.053-10.24-14.487" transform="translate(-3616.494 57.233)" fill="#18bdba"/>
                    <path id="Path_10103-3" data-name="Path 10103" d="M3597.318-70.086c14.133,0,27.675,3.258,37.642,9.05,20.754,12.073,20.644,31.649-.246,43.717l-6.339,3.663-.664.384-1.2.7-.256.148-.517.3-.26.151-.817.472-.844.487-.865.5-.9.52-.4.229-.365.211-.19.11-.191.11-.4.229-.256.148-.148.085-.206.119-.212.122-.212.123-.436.256-.223.129L3618.6-8l-.31.179-.381.22-.708.409-.892.512-.321.186-7.281,4.207-.359.207-.354.2-.349.2L3605.615-.5l-.322.185-8.4,4.855,8.4-4.855.322-.185,2.029-1.173.349-.2.354-.2.359-.207,7.281-4.207.321-.186.892-.512.708-.409.381-.22L3618.6-8l.222-.129.223-.129.436-.256.212-.123.212-.122.206-.119.148-.085.256-.148.4-.229.191-.11.19-.11.365-.211.4-.229.9-.52.865-.5.844-.487.817-.472.26-.151.517-.3.256-.148,1.2-.7.664-.384c17.39-10.05,17.482-26.339.21-36.386-8.3-4.827-19.569-7.534-31.338-7.534l-.072,12.569.072-12.569.071-12.509" transform="translate(-3468.192 70.086)" fill="#d9fbfb"/>
                    <path id="Path_10104-3" data-name="Path 10104" d="M3607.777-55.422c11.77,0,23.04,2.708,31.338,7.534,17.272,10.048,17.18,26.336-.21,36.386l-.664.384-1.2.7-.256.148-.517.3-.26.151-.817.472-.844.487-.865.5-.9.52-.4.229-.365.211-.19.11-.191.11-.4.229-.256.148-.148.085-.206.119-.212.122-.212.123-.436.256-.223.129-.222.129-.31.179-.381.22-.708.409-.892.512-.321.186-7.281,4.207-.359.207-.354.2-.349.2-2.029,1.173-.322.185-8.4,4.855,8.4-4.855.322-.185,2.029-1.173.349-.2.354-.2.359-.207,7.281-4.207.321-.186.892-.512.708-.409.381-.22.31-.179.222-.129.223-.129.436-.256.212-.123.212-.122.206-.119.148-.085.256-.148.4-.229.191-.11.19-.11.365-.211.4-.229c13.843-8.032,13.872-21.025.071-29.022-6.61-3.833-15.584-5.987-24.948-5.984l.072-12.569" transform="translate(-3478.722 67.932)" fill="#18bdba"/>
                    <path id="Path_10105-3" data-name="Path 10105" d="M3618.294-40.688c9.364,0,18.338,2.151,24.948,5.984,13.8,8,13.772,20.99-.071,29.022l-.4.229-.365.211-.19.11-.191.11-.4.229-.256.148-.148.085-.206.119-.212.122-.212.123-.436.256-.223.129-.222.129-.31.179-.381.22-.707.409-.892.512-.321.186-7.281,4.207-.359.207-.354.2-.349.2-2.029,1.173-.321.185-8.4,4.855.283-49.546" transform="translate(-3489.31 65.767)" fill="#343a3f"/>
                    <path id="Path_10106-3" data-name="Path 10106" d="M3674.97-61.033c10.028-5.795,23.607-9.053,37.754-9.053l-.072,12.509c-11.768,0-23.075,2.71-31.422,7.534-17.39,10.05-17.476,26.342-.2,36.39h-.005l-6.293-3.661c-20.753-12.072-20.643-31.644.246-43.717" transform="translate(-3583.593 70.086)" fill="#343a3f"/>
                    <path id="Path_10107-3" data-name="Path 10107" d="M3672.424-47.888c8.347-4.824,19.654-7.534,31.423-7.534l-.072,12.569-.283,49.546.279-49.547c-9.366,0-18.365,2.151-25.02,5.984l-.04.023c-13.845,8-13.948,20.979-.209,29h-.006l-6.276-3.65c-17.271-10.048-17.185-26.34.2-36.39" transform="translate(-3574.792 67.932)" fill="#d9fbfb"/>
                    <path id="Path_10108-3" data-name="Path 10108" d="M3669.862-34.682l.04-.023c6.655-3.833,15.654-5.987,25.02-5.984l-.279,49.547L3669.653-5.68c-13.739-8.019-13.636-21,.209-29" transform="translate(-3565.943 65.767)" fill="#18bdba"/>
                  </g>
                </g>
              </g>
            </g>
          </g>
        </g>
      </g>
    </g>
  </g>
</svg>
